<svg width="110" height="121" viewBox="0 0 110 121" fill="none" xmlns="http://www.w3.org/2000/svg">
<path d="M29.6816 108.386L29.6333 108.353C30.174 108.158 30.8252 108.138 31.3923 108.061C37.7468 107.189 44.554 107.181 50.957 107.148C57.8333 107.058 64.7073 107.165 71.5789 107.468C73.5825 107.56 75.5817 107.721 77.5766 107.949C78.2689 108.03 79.0421 108.059 79.7129 108.263C79.1327 109.138 77.8934 109.688 77.0257 110.155C72.6578 112.505 67.8335 114.273 63.0344 115.068C54.7063 116.446 46.5348 115.8 38.5241 112.827C36.9817 112.273 35.4714 111.624 33.9931 110.882C32.5148 110.139 31.0776 109.308 29.6816 108.386Z" fill="#F7DDB2"/>
<path d="M40.1844 94.7653C42.2842 94.5238 44.4799 94.5769 46.5927 94.5523C50.2649 94.5164 53.9372 94.5038 57.6095 94.5147C60.5761 94.5125 63.5424 94.5463 66.5082 94.6163C67.5414 94.6521 68.6658 94.6005 69.686 94.7666C70.2457 94.7671 70.7971 94.7897 71.3553 94.8299C72.6559 94.8503 73.9691 94.9758 75.2655 95.0921C75.8933 95.1484 76.5752 95.2831 77.2001 95.231C77.3812 95.216 77.5167 95.1455 77.6747 95.0504C77.644 95.2541 77.6005 95.322 77.6999 95.5021L77.8191 95.5464L77.8115 95.6234C80.997 96.221 86.3479 96.5113 88.3922 99.745C88.6866 100.21 88.8717 100.707 89.0402 101.242C89.043 101.269 89.0462 101.297 89.0487 101.324C89.2429 103.368 88.6004 105.384 90.2679 106.902C92.3495 108.796 97.0127 108.333 99.5777 108.163C100.936 108.074 102.303 107.977 103.662 107.918C105.556 107.835 107.41 107.871 109.297 108.024C108.628 108.358 108.044 108.999 107.464 109.501C106.765 110.098 106.059 110.685 105.347 111.261C104.758 111.738 104.151 112.184 103.525 112.598C102.799 113.077 102.057 113.502 101.416 114.122C102.424 114.71 103.401 115.358 104.347 116.066C105.292 116.773 106.2 117.536 107.071 118.355C107.767 119.013 108.407 119.74 109.093 120.408L109.011 120.392C107.306 120.06 104.201 120.217 102.416 120.324C99.6773 120.489 91.8233 121.609 90.0588 118.857C89.3401 117.736 89.5798 116.299 89.5497 115.01C89.4487 110.68 84.9401 109.288 81.8155 108.642C81.119 108.498 80.4165 108.359 79.7133 108.264C79.0425 108.06 78.2693 108.031 77.577 107.95C75.5821 107.722 73.5829 107.561 71.5793 107.469C64.7077 107.166 57.8337 107.059 50.9574 107.149C44.5544 107.182 37.7472 107.19 31.3927 108.062C30.8256 108.14 30.1744 108.159 29.6337 108.354L29.682 108.388L29.5856 108.41C29.1568 108.503 28.7101 108.484 28.278 108.576C25.8555 109.091 22.5109 109.993 21.0474 112.394C19.6864 114.627 20.9536 116.982 19.8409 118.809C18.8673 120.408 16.8326 120.213 16.385 120.659C16.3257 120.719 16.3287 120.871 16.3274 120.95H16.2611H1.0191C0.946914 120.762 0.912991 120.561 0.871605 120.363C1.1508 119.956 1.51475 119.603 1.84549 119.249C3.79099 117.163 6.07804 115.556 8.43049 114.12C7.87174 113.581 7.22859 113.198 6.59959 112.775C5.94019 112.329 5.293 111.861 4.65803 111.372C3.88323 110.76 3.12275 110.126 2.37659 109.471C1.81381 108.981 1.25497 108.401 0.611084 108.053C2.83806 107.613 6.09431 107.875 8.3968 108.01C11.2631 108.177 17.3011 108.995 19.581 106.899C21.1877 105.423 20.5684 103.534 20.7708 101.565C20.7731 101.541 20.7761 101.518 20.7787 101.495C21.0114 101.128 21.0913 100.239 21.5158 99.6333C23.5766 96.6955 28.7819 96.0412 31.923 95.6493L31.8237 95.6037C31.8405 95.4881 31.9216 95.3881 31.9801 95.2917C31.9605 95.166 31.9378 95.1144 31.883 95.0061C32.2024 95.2049 32.3875 95.307 32.7577 95.2689C33.4287 95.1212 34.1865 95.1214 34.8732 95.0639C36.6345 94.9156 38.418 94.7666 40.1844 94.7653Z" fill="#28546C"/>
<path d="M31.8829 95.0052C32.2023 95.2039 32.3874 95.3061 32.7576 95.268C32.951 95.3576 33.1419 95.4276 33.3439 95.4896L31.9229 95.6484L31.8235 95.6028C31.8404 95.4872 31.9215 95.3872 31.9799 95.2908C31.9603 95.1651 31.9377 95.1135 31.8829 95.0052Z" fill="#FEFEFE"/>
<path d="M69.6863 94.7655C70.2461 94.7661 70.7975 94.7886 71.3558 94.8288C71.1148 94.9431 70.9297 94.9892 70.6706 95.0128C70.5763 95.0211 70.482 95.0325 70.3877 95.0416C69.4472 95.0501 68.5033 94.9962 67.563 94.9713C68.2695 94.813 68.9709 94.8166 69.6863 94.7655Z" fill="#FEFEFE"/>
<path d="M47.4842 97.2656L48.1863 97.2775C48.1988 97.587 48.2711 98.0719 48.1035 98.3311L47.8888 98.3682L47.1248 98.3505C47.1285 97.9916 47.0125 97.6036 47.2193 97.3001L47.4842 97.2656Z" fill="#F7DDB2"/>
<path d="M71.3555 94.8285C72.6562 94.8489 73.9695 94.9744 75.266 95.0908C75.8939 95.147 76.5759 95.2818 77.2008 95.2297C77.3819 95.2146 77.5174 95.1441 77.6754 95.049C77.6447 95.2527 77.6013 95.3206 77.7006 95.5008L77.8199 95.5451L77.8123 95.6221C76.7099 95.6024 75.5602 95.3979 74.4553 95.309C73.102 95.2004 71.7373 95.1908 70.3875 95.0413C70.4817 95.0322 70.576 95.0208 70.6703 95.0125C70.9294 94.9889 71.1145 94.9428 71.3555 94.8285Z" fill="#E8EDF2"/>
<path d="M32.7576 95.2681C33.4287 95.1204 34.1865 95.1207 34.8733 95.0631C36.6347 94.9149 38.4184 94.7659 40.1849 94.7646C40.9293 94.8078 41.7546 94.7827 42.4777 94.9732C39.4204 95.0624 36.3944 95.2884 33.3439 95.4897C33.1419 95.4278 32.951 95.3578 32.7576 95.2681Z" fill="#E8EDF2"/>
<path d="M47.1248 98.9215L48.189 98.9213C48.1587 100.098 48.3919 103.791 47.9937 104.628C47.8357 104.96 47.5301 105.048 47.2283 105.138C46.8741 105.152 46.5565 105.117 46.2126 105.026L46.3804 104.08C46.6138 104.079 46.8366 104.09 47.0273 103.919C47.2558 103.471 47.1241 99.7403 47.1248 98.9215Z" fill="#F7DDB2"/>
<path d="M0.842285 120.293C3.13543 120.116 5.42855 120.117 7.72165 120.294C10.5383 120.486 13.4052 120.837 16.221 120.516C16.3413 120.654 16.3145 120.741 16.326 120.938H0.990688C0.918055 120.732 0.883925 120.511 0.842285 120.293Z" fill="#28546C"/>
<path d="M58.6305 97.424L58.7095 97.5121C58.7301 97.9825 58.716 98.442 58.6922 98.9124L59.4604 98.921C59.4467 99.2328 59.4546 99.5477 59.4546 99.86L58.6991 99.8294C58.7303 100.562 58.5681 101.751 58.7691 102.407C58.8061 102.527 58.7807 102.483 58.8937 102.546C59.006 102.507 59.1031 102.47 59.2209 102.458C59.3247 102.448 59.333 102.493 59.4081 102.564C59.4897 102.802 59.4957 102.977 59.4897 103.23C59.3996 103.405 59.3085 103.395 59.141 103.455C58.6087 103.479 58.3125 103.462 57.8313 103.18C57.4195 102.161 57.8648 100.462 57.5478 99.8644C57.3832 99.8447 57.2788 99.8385 57.1466 99.7128C57.05 99.4642 57.0477 99.2325 57.1207 98.9726C57.2922 98.9469 57.4031 98.9321 57.545 98.8082C57.6444 98.5657 57.6002 98.3873 57.5797 98.1292C57.8956 97.8565 58.2831 97.6432 58.6305 97.424Z" fill="#F7DDB2"/>
<path d="M40.1841 94.7654C42.2839 94.5238 44.4796 94.577 46.5924 94.5523C50.2646 94.5164 53.9369 94.5039 57.6092 94.5148C60.5758 94.5125 63.542 94.5464 66.5079 94.6163C67.541 94.6521 68.6655 94.6005 69.6857 94.7667C68.9703 94.8177 68.2689 94.8141 67.5625 94.9724C66.3207 95.0087 65.068 94.8841 63.8253 94.8581C61.3097 94.8055 58.7907 94.798 56.2747 94.7897C52.9548 94.7866 49.6351 94.8077 46.3153 94.853C45.0354 94.8732 43.7568 94.9833 42.4766 94.974C41.7536 94.7835 40.9284 94.8086 40.1841 94.7654Z" fill="url(#paint0_linear_0_1)"/>
<path d="M70.6194 98.7962C70.7617 98.7757 70.9087 98.77 71.0522 98.7713C71.3767 98.7739 71.6866 98.9001 71.9124 99.1674C72.4957 99.8586 72.2757 102.329 72.2669 103.331L71.1978 103.328C71.2158 102.545 71.3469 101.001 71.1595 100.3C71.0991 100.075 70.9951 99.8498 70.7876 99.7601C70.5376 99.6523 70.3169 99.7808 70.0897 99.8912C69.5783 100.634 69.7943 102.412 69.8068 103.33L68.7137 103.329L68.7112 98.9232C68.9351 98.9131 69.2339 98.8626 69.4509 98.9162C69.6557 98.967 69.7504 99.0507 69.8572 99.2485C70.067 99.2347 70.4216 98.9237 70.6194 98.7962Z" fill="#F7DDB2"/>
<path d="M54.1636 98.8002C54.5285 98.7683 54.9073 98.7387 55.2715 98.7945C55.7281 98.8642 56.1085 99.112 56.3807 99.5316C56.4799 99.6842 56.5215 99.7506 56.4931 99.9382C56.4302 99.9983 56.4217 100.012 56.3405 100.06C56.1513 100.173 55.7041 100.204 55.5141 100.109C55.3829 99.9123 55.2615 99.6749 55.036 99.6142C54.8113 99.5539 54.4645 99.5375 54.2733 99.7171C54.1465 99.8364 54.1486 99.8664 54.146 100.038C54.4885 100.488 55.4418 100.554 55.9405 100.794C56.2345 100.936 56.527 101.142 56.6389 101.496C56.7473 101.84 56.6766 102.317 56.5247 102.632C56.2943 103.109 55.8201 103.309 55.3861 103.461C54.9385 103.488 54.4899 103.514 54.0547 103.365C53.4583 103.161 53.1673 102.714 52.8828 102.132C53.244 102.108 53.5932 102.076 53.9491 102.001C54.1289 102.312 54.2879 102.526 54.6117 102.648C54.8474 102.737 55.0748 102.704 55.2932 102.577C55.4704 102.475 55.5936 102.361 55.65 102.145C55.4067 101.694 54.2761 101.553 53.8215 101.357C53.5102 101.223 53.2348 100.943 53.1135 100.59C53.0152 100.304 53.0367 99.9983 53.1495 99.721C53.3582 99.2081 53.7095 98.9793 54.1636 98.8002Z" fill="#F7DDB2"/>
<path d="M65.4748 98.8011C66.294 98.7356 66.8722 98.7371 67.5272 99.3602C67.7966 100.679 67.5313 102.009 67.8881 103.338C67.7481 103.337 66.9845 103.369 66.9157 103.264C66.8186 103.115 66.9122 103.086 66.7363 102.953C66.3601 103.03 66.1228 103.426 65.7396 103.508C65.3493 103.591 64.9448 103.36 64.6319 103.126C64.4323 102.846 64.2827 102.589 64.249 102.224C64.0979 100.588 66.1896 100.933 66.5984 100.349C66.5998 100.168 66.5538 100.037 66.4509 99.8985C66.3432 99.7529 66.1186 99.6116 65.9464 99.6305C65.6867 99.659 65.4676 100.072 65.2883 100.269C65.127 100.325 64.9742 100.337 64.8085 100.298C64.656 100.261 64.5677 100.182 64.4817 100.038C64.4628 99.9109 64.4563 99.8192 64.5023 99.7005C64.6807 99.2418 65.0865 98.9878 65.4748 98.8011Z" fill="#F7DDB2"/>
<path d="M66.5226 101.348L66.5734 101.381C66.604 101.502 66.6377 101.606 66.6187 101.734C66.5753 102.022 66.4149 102.257 66.1963 102.411C65.9848 102.56 65.824 102.548 65.591 102.477C65.4961 102.36 65.3879 102.231 65.3579 102.07C65.3313 101.925 65.3676 101.795 65.46 101.69C65.6953 101.424 66.2046 101.392 66.5226 101.348Z" fill="#28546C"/>
<path d="M50.1494 98.8016C50.5883 98.7629 51.0844 98.7088 51.5071 98.8744C52.8558 99.4034 51.973 101.959 52.5434 103.247L52.5785 103.324C52.2866 103.329 51.9028 103.387 51.6194 103.333C51.4507 103.301 51.4787 103.075 51.3897 102.926C51.1198 102.937 50.8587 103.314 50.591 103.426C50.1483 103.612 49.7156 103.413 49.3191 103.194C49.2128 103.059 49.1111 102.918 49.0397 102.755C48.9086 102.458 48.7933 102.095 48.8971 101.767C49.2109 100.775 50.3378 100.917 50.9989 100.498C51.1431 100.407 51.182 100.346 51.2335 100.173C51.1974 100.026 51.1314 99.9114 51.017 99.8248C50.8677 99.7121 50.5885 99.6683 50.4184 99.7333C50.1365 99.8409 50.0694 100.057 49.9377 100.337C49.6151 100.252 49.2858 100.194 48.9597 100.127C48.9779 100.085 48.9964 100.042 49.0154 100C49.2895 99.3899 49.5557 99.0167 50.1494 98.8016Z" fill="#F7DDB2"/>
<path d="M51.0905 101.345L51.1568 101.34L51.2407 101.44C51.2454 101.532 51.2525 101.627 51.244 101.719C51.2213 101.964 51.087 102.207 50.9174 102.36C50.7191 102.538 50.5308 102.549 50.2867 102.527C50.1973 102.436 50.0552 102.29 50.0138 102.156C49.9597 101.982 49.9896 101.925 50.0462 101.763C50.3424 101.456 50.7083 101.417 51.0905 101.345Z" fill="#28546C"/>
<path d="M43.9099 98.801C44.3645 98.7569 44.887 98.7064 45.3204 98.8951C46.5773 99.4425 45.7479 101.918 46.2998 103.241L46.3358 103.326C46.0855 103.331 45.5801 103.41 45.3541 103.329C45.2237 103.283 45.23 103.06 45.1498 102.927C44.8614 102.952 44.6303 103.308 44.3516 103.425C43.9127 103.609 43.4776 103.412 43.0821 103.199C42.8515 102.888 42.5603 102.345 42.6183 101.918C42.7843 100.696 44.2705 100.931 44.9446 100.418C44.9749 100.303 44.9994 100.214 44.9804 100.092C44.955 99.9279 44.8893 99.853 44.7606 99.7786C44.5871 99.6788 44.3338 99.7143 44.1556 99.7784C43.8942 99.8724 43.8203 100.08 43.6989 100.336C43.3754 100.251 43.0456 100.192 42.7188 100.124C42.7484 100.054 42.7792 99.9852 42.8113 99.9168C43.0766 99.3505 43.3535 98.9933 43.9099 98.801Z" fill="#F7DDB2"/>
<path d="M44.8514 101.344L44.9179 101.34L45.0016 101.44C45.0062 101.532 45.0134 101.627 45.0048 101.719C44.9822 101.965 44.8477 102.207 44.6781 102.36C44.48 102.538 44.2917 102.549 44.0478 102.528C43.9582 102.437 43.8158 102.29 43.774 102.156C43.7199 101.981 43.75 101.925 43.8068 101.763C44.1035 101.456 44.4691 101.416 44.8514 101.344Z" fill="#28546C"/>
<path d="M60.3817 97.2635L61.0727 97.2796C61.0784 97.9856 61.0909 98.695 61.0382 99.3989C61.3574 99.0736 61.753 98.7753 62.1958 98.7414C62.5383 98.7152 62.8947 98.8819 63.1392 99.1478C63.8177 99.8862 63.5656 102.271 63.5501 103.329L62.4588 103.325C62.5002 102.61 62.4729 101.873 62.4754 101.156C62.4852 100.815 62.5226 100.385 62.3594 100.082C62.2517 99.8823 62.0957 99.7053 61.8781 99.678C61.708 99.6568 61.5411 99.74 61.4179 99.8667C60.9026 100.398 61.072 102.525 61.065 103.332L60.0096 103.333L60.005 99.6983C60.002 98.9205 59.9666 98.124 60.0283 97.3493C60.1376 97.2506 60.2446 97.2736 60.3817 97.2635Z" fill="#F7DDB2"/>
<path d="M37.5938 97.2823C38.5873 97.2717 40.5851 97.0371 41.4083 97.6247C41.751 97.8691 41.9204 98.2532 41.9895 98.6927C42.0586 99.1336 41.9805 99.596 41.7469 99.9622C41.5257 100.309 41.1797 100.581 40.7996 100.633C40.7816 100.635 40.7633 100.637 40.7453 100.639C40.7534 100.721 40.9438 100.88 41.0011 100.942C41.6121 101.607 42.0267 102.511 42.4702 103.319L41.3383 103.332C41.2271 103.324 41.18 103.329 41.0952 103.233C40.9704 103.093 40.8604 102.835 40.7628 102.665C40.4067 102.048 40.082 101.441 39.6143 100.92C39.3138 100.846 39.0243 100.818 38.7183 100.795C38.6848 101.636 38.706 102.488 38.7049 103.33L37.5949 103.331L37.5938 97.2823Z" fill="#F7DDB2"/>
<path d="M38.7084 98.3484C39.2647 98.3367 40.0911 98.2173 40.5907 98.491C40.7303 98.5674 40.8399 98.6843 40.8775 98.8592C40.9344 99.1226 40.82 99.3449 40.7112 99.566C40.0775 99.8444 39.3761 99.7563 38.7073 99.7428L38.7084 98.3484Z" fill="#28546C"/>
<path d="M20.7783 101.494C19.965 100.389 18.99 99.4033 18.0984 98.3763C16.9974 97.1077 15.9768 95.7995 14.9727 94.4342C14.5909 93.9082 14.2177 93.3745 13.8529 92.8334C13.4882 92.2923 13.1322 91.744 12.785 91.1886C12.4377 90.6333 12.0994 90.0712 11.7701 89.5022C11.4407 88.9333 11.1206 88.3579 10.8096 87.776C10.4986 87.1943 10.197 86.6065 9.90476 86.0127C9.61252 85.4187 9.32984 84.8191 9.05672 84.2139C8.78358 83.6087 8.52018 82.9982 8.26651 82.3824C8.01287 81.7667 7.7691 81.146 7.53521 80.5204C7.30134 79.895 7.07752 79.265 6.86374 78.6304C6.64996 77.9958 6.44635 77.3572 6.25292 76.7144C6.05951 76.0719 5.87639 75.4256 5.70357 74.7754C5.53076 74.1255 5.36835 73.4722 5.21636 72.8157C5.06439 72.159 4.92292 71.4995 4.79196 70.8373C4.661 70.1752 4.54063 69.5107 4.43085 68.8436C4.32109 68.1766 4.22198 67.5075 4.13354 66.8365C4.04511 66.1654 3.9674 65.4928 3.9004 64.8187C3.86157 64.4398 3.82613 64.0605 3.79408 63.6807C3.76203 63.3011 3.73338 62.9211 3.70814 62.5407C3.6829 62.1604 3.66105 61.7799 3.64261 61.3991C3.62417 61.0183 3.60914 60.6374 3.59753 60.2562C3.58591 59.8751 3.57771 59.4938 3.57292 59.1123C3.56813 58.731 3.56675 58.3497 3.56878 57.9684C3.57081 57.5869 3.57626 57.2056 3.58512 56.8245C3.59398 56.4432 3.60625 56.062 3.62193 55.6811C3.63761 55.3001 3.6567 54.9193 3.67919 54.5387C3.70168 54.1583 3.72758 53.7781 3.75688 53.3982C3.78618 53.0181 3.81889 52.6384 3.855 52.2592C3.89109 51.88 3.93058 51.5012 3.97345 51.123C4.01632 50.7447 4.06258 50.3668 4.11221 49.9895C4.16185 49.6122 4.21486 49.2354 4.27124 48.8593C4.32761 48.4834 4.38734 48.108 4.45045 47.7333C4.51355 47.3584 4.58 46.9843 4.6498 46.6111C4.71959 46.238 4.79271 45.8655 4.86916 45.4939C4.94564 45.1223 5.02542 44.7515 5.10852 44.3816C5.1916 44.0119 5.27799 43.6431 5.3677 43.2753C5.45739 42.9073 5.55037 42.5404 5.64664 42.1746C5.7429 41.8089 5.84243 41.4443 5.94521 41.0807C6.048 40.7172 6.15404 40.3549 6.26332 39.9936C6.37259 39.6325 6.48508 39.2726 6.60079 38.9139C6.71652 38.5554 6.83543 38.1982 6.95753 37.8421C7.07965 37.4862 7.20494 37.1316 7.33339 36.7785C7.46185 36.4254 7.59346 36.0738 7.72821 35.7237C7.86296 35.3735 8.00083 35.0249 8.14182 34.6778C8.28281 34.3309 8.42689 33.9855 8.57406 33.6417C8.72124 33.2979 8.87148 32.9557 9.02476 32.6152C9.17806 32.2748 9.33439 31.9362 9.49376 31.5993C9.65311 31.2624 9.81547 30.9273 9.98083 30.594C10.1462 30.2607 10.3145 29.9293 10.4858 29.5999C11.5276 27.5792 12.6604 25.5265 13.9492 23.6901C16.486 20.0759 19.3702 16.6357 22.5466 13.717C23.0053 13.2983 23.4706 12.8887 23.9423 12.4882C24.4139 12.0877 24.8915 11.6966 25.3752 11.3148C25.859 10.9331 26.3485 10.5609 26.844 10.1983C27.3393 9.83572 27.8401 9.48293 28.3465 9.13995C28.8528 8.79697 29.3644 8.46402 29.8811 8.14108C30.3978 7.81815 30.9194 7.50544 31.446 7.20293C31.9724 6.90043 32.5034 6.60833 33.039 6.32662C33.5745 6.04492 34.1142 5.7738 34.6582 5.51324C35.2023 5.25269 35.7502 5.00285 36.3019 4.76376C36.8537 4.52466 37.4091 4.29644 37.968 4.07909C38.5269 3.86175 39.0889 3.65542 39.6542 3.4601C40.2196 3.26476 40.7878 3.08057 41.3589 2.9075C41.9299 2.73444 42.5035 2.5726 43.0795 2.422C43.6556 2.27139 44.234 2.13213 44.8144 2.00419C45.3948 1.87623 45.977 1.75969 46.5612 1.65456C47.1452 1.54941 47.7307 1.45573 48.3176 1.37353C62.5822 -0.463707 75.8622 3.67305 87.108 13.7598C87.4295 14.0522 87.7479 14.349 88.0631 14.6501C88.3781 14.9512 88.6898 15.2565 88.9983 15.5661C89.3068 15.8757 89.6119 16.1895 89.9136 16.5074C90.2152 16.8253 90.5134 17.1473 90.8081 17.4734C91.1028 17.7995 91.3939 18.1295 91.6813 18.4634C91.9689 18.7974 92.2528 19.1352 92.5329 19.477C92.8131 19.8187 93.0895 20.1643 93.3622 20.5136C93.635 20.8629 93.9039 21.2159 94.1689 21.5725C94.434 21.9291 94.6952 22.2893 94.9523 22.6529C95.2095 23.0168 95.4628 23.384 95.7121 23.7546C95.9613 24.1252 96.2065 24.4992 96.4476 24.8765C96.6889 25.2538 96.9259 25.6344 97.1589 26.0183C97.3916 26.4022 97.6203 26.7892 97.8449 27.1791C98.0694 27.5692 98.2896 27.9623 98.5056 28.3583C98.7216 28.7544 98.9333 29.1534 99.1406 29.555C99.348 29.9569 99.5509 30.3615 99.7495 30.7689C99.9479 31.1763 100.142 31.5864 100.332 31.9991C100.521 32.4117 100.707 32.8269 100.887 33.2446C101.068 33.6624 101.244 34.0825 101.415 34.5049C101.587 34.9275 101.754 35.3524 101.916 35.7794C102.078 36.2065 102.236 36.6358 102.389 37.0672C102.542 37.4984 102.69 37.9318 102.834 38.3674C102.978 38.8028 103.117 39.24 103.251 39.6792C103.385 40.1184 103.514 40.5594 103.639 41.0022C103.763 41.4449 103.883 41.8892 103.998 42.3353C104.113 42.7812 104.223 43.2287 104.328 43.6777C104.433 44.1268 104.534 44.5772 104.629 45.029C104.725 45.4808 104.815 45.9338 104.901 46.388C104.986 46.8422 105.067 47.2976 105.143 47.754C105.219 48.2103 105.289 48.6676 105.355 49.126C105.421 49.5843 105.482 50.0436 105.538 50.5037C105.593 50.9636 105.644 51.4243 105.69 51.8857C105.737 52.3382 105.779 52.7913 105.817 53.245C105.854 53.6987 105.886 54.1528 105.914 54.6071C105.941 55.0617 105.964 55.5165 105.982 55.9716C106 56.4268 106.013 56.8822 106.021 57.3376C106.029 57.793 106.033 58.2485 106.031 58.7041C106.029 59.1597 106.023 59.6152 106.012 60.0707C106 60.5259 105.984 60.9811 105.963 61.4362C105.942 61.8911 105.917 62.3456 105.886 62.7998C105.855 63.2541 105.819 63.7078 105.779 64.1612C105.739 64.6145 105.694 65.0673 105.643 65.5194C105.594 65.9714 105.539 66.4228 105.479 66.8735C105.419 67.3241 105.355 67.7738 105.286 68.2227C105.216 68.6715 105.142 69.1194 105.063 69.5664C104.985 70.0134 104.901 70.4591 104.813 70.9036C104.724 71.3484 104.631 71.7918 104.534 72.2339C104.436 72.6762 104.333 73.117 104.226 73.5564C104.119 73.9957 104.007 74.4336 103.89 74.87C103.774 75.3064 103.653 75.7412 103.527 76.1744C103.401 76.6077 103.271 77.0391 103.136 77.4686C103.001 77.8983 102.861 78.326 102.717 78.7519C102.573 79.178 102.424 79.602 102.271 80.0239C102.118 80.4458 101.96 80.8655 101.798 81.2831C101.636 81.7009 101.469 82.1164 101.298 82.5296C101.127 82.9427 100.952 83.3536 100.772 83.7622C100.592 84.1706 100.408 84.5766 100.219 84.9802C100.031 85.3838 99.8382 85.7848 99.6411 86.1832C99.4441 86.5816 99.2429 86.9774 99.0376 87.3704C98.832 87.7633 98.6224 88.1534 98.4086 88.5408C98.1947 88.9281 97.9768 89.3126 97.7548 89.6943C97.5328 90.0758 97.3068 90.4542 97.0768 90.8296C96.8468 91.2051 96.6128 91.5774 96.3748 91.9466C96.1368 92.3158 95.8949 92.6817 95.649 93.0444C94.712 94.4332 93.7061 95.8425 92.6218 97.0903C91.4784 98.4061 90.076 99.7684 89.0708 101.196L89.0398 101.241C88.8714 100.706 88.6863 100.21 88.3919 99.7441C86.3475 96.5103 80.9966 96.2201 77.8112 95.6225L77.8188 95.5455L77.6996 95.5012C77.6002 95.3211 77.6436 95.2532 77.6744 95.0495C78.7921 94.1359 79.9115 93.1963 80.9599 92.184C81.172 91.9794 81.3822 91.7724 81.5905 91.563C81.7989 91.3537 82.0053 91.1418 82.2096 90.9276C82.414 90.7134 82.6163 90.4967 82.8166 90.2776C83.0169 90.0586 83.2151 89.8372 83.4112 89.6134C83.6073 89.3898 83.8013 89.1639 83.9933 88.9355C84.1852 88.7072 84.375 88.4768 84.5627 88.244C84.7503 88.0113 84.9357 87.7764 85.1189 87.5394C85.302 87.3022 85.483 87.0629 85.6619 86.8215C85.8406 86.5803 86.0171 86.337 86.1913 86.0915C86.3654 85.846 86.5372 85.5984 86.7068 85.3487C86.8765 85.0993 87.0437 84.8478 87.2085 84.5943C87.3734 84.3409 87.5358 84.0854 87.6959 83.828C87.8559 83.5708 88.0136 83.3116 88.1689 83.0505C88.324 82.7897 88.4768 82.5269 88.6271 82.2622C88.7775 81.9977 88.9253 81.7314 89.0706 81.4632C89.216 81.1951 89.3588 80.9253 89.499 80.6539C89.6393 80.3825 89.7771 80.1094 89.9124 79.8347C90.0475 79.56 90.1801 79.2837 90.3101 79.0059C90.4401 78.7283 90.5675 78.449 90.6923 78.168C90.8171 77.8873 90.9392 77.6051 91.0588 77.3214C91.1783 77.0377 91.2952 76.7526 91.4093 76.4662C91.5235 76.1799 91.635 75.8922 91.7437 75.6032C91.8525 75.3141 91.9585 75.0238 92.0619 74.7322C92.1653 74.4407 92.266 74.148 92.3639 73.8541C92.4618 73.5603 92.5569 73.2652 92.6493 72.9689C92.7418 72.6727 92.8313 72.3756 92.9181 72.0774C93.005 71.7792 93.089 71.4799 93.1702 71.1796C93.2514 70.8794 93.3298 70.5782 93.4054 70.2762C93.4811 69.9742 93.5538 69.6713 93.6236 69.3674C93.6935 69.0636 93.7606 68.759 93.8248 68.4536C93.8891 68.1483 93.9505 67.8422 94.009 67.5354C94.0675 67.2286 94.1232 66.9211 94.1758 66.6131C94.5527 64.4227 94.7318 62.2167 94.8811 59.9947C94.8927 60.1945 94.9128 60.3557 94.971 60.5452C95.1385 59.4832 95.0953 57.8637 95.0775 56.7592C95.0669 55.9523 95.036 55.1465 94.9849 54.3418C94.9339 53.537 94.8627 52.7344 94.7713 51.9339C94.68 51.1337 94.5687 50.3368 94.4374 49.5435C94.3062 48.7501 94.1551 47.9616 93.9843 47.1779C93.8133 46.3941 93.6229 45.6162 93.413 44.8445C93.2032 44.0727 92.9742 43.3082 92.7258 42.5509C92.4776 41.7935 92.2107 41.0446 91.9249 40.3043C91.639 39.5638 91.3348 38.8329 91.0124 38.1116C90.8655 37.7757 90.7149 37.442 90.5606 37.1105C90.4064 36.7788 90.2485 36.4493 90.0869 36.1221C89.9253 35.7948 89.7601 35.4698 89.5914 35.1471C89.4227 34.8245 89.2504 34.5043 89.0745 34.1864C88.8987 33.8685 88.7194 33.5531 88.5366 33.2402C88.3537 32.9275 88.1674 32.6173 87.9778 32.3096C87.788 32.0019 87.5949 31.6969 87.3985 31.3945C87.2021 31.0922 87.0023 30.7927 86.7993 30.496C86.5962 30.1992 86.39 29.9053 86.1805 29.6144C85.9708 29.3234 85.758 29.0354 85.542 28.7504C85.3261 28.4653 85.1071 28.1832 84.8848 27.9042C84.6626 27.6252 84.4374 27.3494 84.2091 27.0767C83.9808 26.8039 83.7496 26.5344 83.5154 26.2682C83.2811 26.0019 83.0439 25.739 82.8039 25.4793C82.5637 25.2196 82.3208 24.9633 82.0751 24.7104C81.8293 24.4574 81.5809 24.208 81.3296 23.9622C81.0783 23.7162 80.8244 23.4737 80.5677 23.2347C80.3111 22.9958 80.0518 22.7605 79.7899 22.5288C79.528 22.2971 79.2637 22.0691 78.9968 21.8449C78.7299 21.6205 78.4605 21.3998 78.1888 21.183C77.917 20.9662 77.6429 20.7532 77.3663 20.5439C77.0898 20.3347 76.811 20.1294 76.5301 19.9279C76.2491 19.7265 75.9658 19.529 75.6804 19.3355C75.3951 19.1418 75.1076 18.9522 74.818 18.7666C74.5284 18.5811 74.2367 18.3996 73.9431 18.2221C73.6495 18.0447 73.3539 17.8714 73.0564 17.7023C72.759 17.533 72.4597 17.3679 72.1587 17.207C71.8575 17.0461 71.5546 16.8895 71.2501 16.737C70.9455 16.5845 70.6393 16.4364 70.3315 16.2924C70.0236 16.1485 69.7142 16.0089 69.4033 15.8735C69.0923 15.7382 68.7798 15.6072 68.466 15.4806C68.1522 15.354 67.837 15.2318 67.5204 15.1139C63.4885 13.6083 59.3557 12.9735 55.1169 12.9765C48.4567 12.9814 42.5448 14.4065 36.5801 17.7632C31.7507 20.4812 27.2116 24.493 23.8378 29.2345C23.3627 29.9021 22.6166 30.7863 22.3776 31.5954C21.8439 32.6115 21.213 33.567 20.6556 34.5684C19.8222 36.0661 19.0993 37.6163 18.424 39.2102C14.4661 48.5514 13.7502 59.6039 16.0508 69.5739C16.2542 70.4556 16.5674 71.3447 16.7226 72.2318C16.734 72.2544 16.7463 72.2764 16.7569 72.2997C17.0876 73.0256 17.2749 73.9301 17.5308 74.7011C17.8863 75.7714 18.3328 76.8212 18.7882 77.842C19.0858 78.5217 19.3985 79.1926 19.726 79.8546C20.0536 80.5169 20.3957 81.1694 20.7525 81.8123C21.1091 82.4552 21.4799 83.0877 21.8649 83.7098C22.2497 84.3318 22.6482 84.9427 23.0605 85.5426C23.4726 86.1423 23.8979 86.73 24.3363 87.3059C24.7747 87.8817 25.2257 88.445 25.6893 88.9956C26.1528 89.5462 26.6283 90.0834 27.1157 90.6073C27.6033 91.1311 28.1022 91.641 28.6124 92.1368C29.3487 92.8612 30.135 93.5275 30.9142 94.1919C31.2257 94.4576 31.5959 94.7115 31.8827 95.0052C31.9375 95.1135 31.9601 95.1651 31.9797 95.2907C31.9213 95.3872 31.8402 95.4872 31.8233 95.6028L31.9227 95.6484C28.7816 96.0402 23.5763 96.6946 21.5155 99.6324C21.091 100.238 21.011 101.127 20.7783 101.494Z" fill="#F7DDB2"/>
<path d="M53.6794 3.1674L54.8633 3.1814L54.8379 4.34747C54.4545 4.39036 54.0635 4.37486 53.6782 4.37408L53.6794 3.1674Z" fill="#28546C"/>
<path d="M53.6758 5.07591C54.0705 5.05857 54.4666 5.06028 54.8616 5.05549C54.7975 6.68696 54.8022 8.38917 54.9309 10.0154L53.7232 10.0259C53.7352 8.37483 53.7449 6.72563 53.6758 5.07591Z" fill="#28546C"/>
<path d="M97.9011 38.2172C98.027 38.1951 97.9635 38.1876 98.0904 38.2514C98.1803 38.4906 98.2965 38.748 98.3459 39.0012C98.3751 39.1507 98.373 39.1792 98.3037 39.3008C98.1643 39.3347 98.0772 39.3511 97.9556 39.4423C98.0892 39.767 98.6847 39.7725 98.8816 40.3772C98.9611 40.6208 98.9815 40.8457 98.8856 41.0787C98.7617 41.1759 98.6688 41.2244 98.5165 41.242C97.4541 41.3644 98.0797 40.5096 97.572 40.1442C97.2179 39.8891 96.3185 40.2149 95.9344 40.3414C95.3627 40.556 94.7916 40.7626 94.2407 41.0391C94.1032 40.6192 93.9688 40.1982 93.8374 39.7761C95.2055 39.3689 96.5637 38.7417 97.9011 38.2172Z" fill="#28546C"/>
<path d="M46.2499 5.77409C46.5002 5.76868 46.7516 5.78412 47.0017 5.79257C46.9661 6.19852 46.9118 6.60061 46.8579 7.00389C46.676 6.98847 46.4715 6.95641 46.2903 6.98293C46.1062 7.00991 45.9511 7.1489 45.8552 7.32108C45.4348 8.07588 46.0167 10.1144 46.2028 10.9606C45.8113 11.0684 45.426 11.1596 45.0267 11.2241C44.7882 9.60721 44.4665 7.99087 44.1409 6.3933C44.3687 6.34454 45.017 6.13401 45.1963 6.23297C45.2227 6.4025 45.228 6.51775 45.3197 6.66118C45.6999 6.42663 45.6687 6.02031 46.1861 5.80037C46.2074 5.79135 46.2286 5.78285 46.2499 5.77409Z" fill="#28546C"/>
<path d="M101.675 51.3277L102.483 51.2819C102.533 51.6893 102.531 52.1055 102.542 52.5163C102.067 52.6112 101.568 52.6179 101.087 52.6612C99.7661 52.7799 98.4295 52.8522 97.1143 53.0274C96.8746 53.0466 96.6405 53.0917 96.4036 53.1353C96.3777 52.6835 96.32 52.2299 96.2749 51.78C98.0761 51.6909 99.8768 51.4833 101.675 51.3277Z" fill="#28546C"/>
<path d="M10.0929 41.8528C10.4053 41.9622 10.7212 42.0527 11.0381 42.1436L10.7374 43.0285C11.2381 43.1054 13.077 43.7982 13.3936 43.607C13.5026 43.3641 13.513 43.1101 13.5396 42.8437C13.8432 42.8927 14.1364 42.9606 14.4348 43.0383C14.4165 43.3138 14.39 43.5883 14.3364 43.8584C14.258 44.2536 14.1194 44.6463 13.7929 44.8598C13.4515 45.0832 13.1277 44.9775 12.7696 44.8844C11.9875 44.7401 11.2387 44.3871 10.4543 44.2552L10.3373 44.8505C10.0268 44.7587 9.72708 44.7253 9.52643 44.4241C9.53251 44.2616 9.53314 44.1707 9.46813 44.0237C9.26037 43.8254 8.96172 43.7912 8.70113 43.7249C8.61858 43.2433 8.49281 42.7693 8.37842 42.296L9.92557 42.7369L10.0929 41.8528Z" fill="#28546C"/>
<path d="M98.9497 41.652L99.1092 41.6741C99.1478 41.7588 99.1774 41.836 99.2042 41.9268C99.2312 42.0177 99.2106 42.0131 99.2763 42.0563C99.5222 42.2191 99.8915 42.0219 100.14 41.9338L101.105 43.0239C100.58 43.0915 100.042 43.2937 99.5298 43.4406L99.7778 44.3229C99.4692 44.3768 99.1653 44.4988 98.8663 44.5981C98.8091 44.2969 98.7542 43.9953 98.7015 43.6931L96.6618 44.2985C96.4374 44.3654 96.2646 44.412 96.1303 44.637C96.1139 44.8998 96.2403 45.1061 96.3448 45.3324C96.045 45.4446 95.7582 45.5825 95.468 45.7222C95.2847 45.2717 95.0605 44.7832 95.0712 44.2762C95.1044 42.7056 97.6484 43.1128 98.3276 42.393C98.3137 42.2722 98.3096 42.1559 98.3084 42.0343C98.473 41.7648 98.6782 41.7417 98.9497 41.652Z" fill="#28546C"/>
<path d="M13.3165 33.0112C13.6085 33.1802 13.8976 33.3173 14.2064 33.443L13.7759 34.2459C14.2469 34.5038 15.6145 35.377 16.0901 35.3951C16.5126 35.4112 16.3224 35.0167 16.5313 34.7692C16.8055 34.7366 17.1375 34.9203 17.3965 35.0211C17.3793 35.1081 17.3604 35.1945 17.3399 35.2806C17.2166 35.7886 17.0109 36.4225 16.57 36.6776C16.2427 36.8668 15.9582 36.7623 15.629 36.6392C14.8429 36.2675 14.0136 35.8725 13.2836 35.3783C13.2298 35.5439 13.1852 35.6836 13.0856 35.8238C12.9207 35.8884 12.829 35.8886 12.6599 35.8715C12.4951 35.7722 12.4366 35.6766 12.3424 35.5048C12.3264 35.2894 12.4008 35.187 12.4851 34.9955L11.6375 34.579C11.6216 34.084 11.6036 33.6001 11.5312 33.1105C12.03 33.308 12.4965 33.5902 12.9672 33.8582L13.3165 33.0112Z" fill="#28546C"/>
<path d="M57.6199 3.41882C57.8225 3.76612 57.6233 4.66199 57.5711 5.08946C57.8778 5.09461 58.1724 5.13769 58.4756 5.18499L58.3675 6.21849C58.0962 6.16085 57.8232 6.14589 57.5482 6.12526C57.5854 6.76191 57.2959 8.65655 57.5843 9.10623C57.8121 9.17421 58.0395 9.1033 58.2676 9.0596L58.2626 10.0628C58.0613 10.1027 57.8621 10.1279 57.6585 10.1475L57.5697 10.1498C57.1775 10.1567 56.8348 10.1413 56.5471 9.8008C55.9888 9.14034 56.3858 6.95562 56.4082 6.04067C56.2855 6.05456 56.1644 6.07623 56.0424 6.04582C55.9599 6.02527 55.9153 5.9442 55.8776 5.86274C55.8087 5.71402 55.781 5.51137 55.8392 5.35195C55.9023 5.17981 55.9693 5.1217 56.1149 5.04399C56.2462 5.05032 56.3303 5.06613 56.4484 4.99115C56.53 4.69382 56.4974 4.36173 56.4923 4.05316C56.872 3.85198 57.245 3.63111 57.6199 3.41882Z" fill="#28546C"/>
<path d="M78.822 11.1925C79.2759 11.221 79.7201 11.2269 80.1742 11.2067L79.3272 12.7651C79.5747 12.9162 79.8169 13.0791 80.0607 13.2377C79.8608 13.5043 79.706 13.8055 79.5447 14.1021C79.3143 13.9468 79.0927 13.7722 78.8692 13.6047C78.4255 14.2774 77.8653 15.1615 77.6025 15.9424C77.4253 16.4684 78.0266 16.3537 78.1546 16.6656L78.0788 16.7994C77.9667 17.0263 77.8459 17.2489 77.7292 17.4731C77.4521 17.3638 77.1697 17.2598 76.9192 17.0841C76.6534 16.8978 76.4255 16.621 76.3689 16.2651C76.2335 15.411 77.4428 13.691 77.8718 12.9468C77.7197 12.8608 77.5723 12.7734 77.4271 12.6735C77.4715 12.3748 77.7229 12.0127 77.8995 11.7888C78.058 11.8093 78.2284 12.019 78.355 12.1358C78.5008 11.8165 78.6651 11.5054 78.822 11.1925Z" fill="#28546C"/>
<path d="M41.4275 7.12348C41.5944 7.11951 41.7679 7.10972 41.9343 7.12573C42.5213 7.18234 42.8747 7.5773 43.2426 8.04338C42.9179 8.24987 42.5997 8.47139 42.2789 8.68596C42.1354 8.51882 41.9715 8.31145 41.7749 8.22483C41.5667 8.13308 41.3316 8.13075 41.1266 8.23382C40.7673 8.41455 40.6104 8.77737 40.4761 9.16718C40.6231 9.81429 40.7446 10.6411 41.2665 11.0469C41.4724 11.2069 41.8098 11.3736 42.0649 11.2914C42.5052 11.1494 42.5412 10.4218 42.7284 10.0368C42.8576 9.95303 42.9417 9.93289 43.0915 9.92006C43.2812 9.90384 43.4645 9.87603 43.6521 9.84171L43.7956 9.88368L43.8407 10.0239C43.7838 10.4258 43.715 10.7924 43.5428 11.1574C43.2833 11.7076 42.8511 11.9893 42.3346 12.1674C41.7409 12.372 41.1632 12.4049 40.6055 12.0511C39.9984 11.6659 39.6469 10.9613 39.483 10.2212C39.3347 9.55094 39.3652 8.85308 39.7054 8.26049C40.1121 7.55203 40.7372 7.30954 41.4275 7.12348Z" fill="#28546C"/>
<path d="M73.1969 9.14744C73.4331 9.26962 73.7587 9.39156 73.9554 9.57646C74.2133 9.81913 73.9544 9.95001 73.9854 10.2171C74.4543 10.1954 74.9509 10.044 75.4088 10.2146C75.7801 10.353 76.1242 10.5923 76.2858 11.0076C76.7316 12.1538 75.3251 14.3742 74.9369 15.4815L74.9045 15.5752C74.5451 15.4022 74.198 15.2163 73.8514 15.0139C74.1478 14.3132 74.4509 13.6161 74.7608 12.9227C74.9311 12.53 75.2927 11.8732 75.1661 11.4225C75.1148 11.2401 74.9828 11.0947 74.8386 11.0012C74.6154 10.8565 74.3529 10.8026 74.1058 10.8969C73.2877 11.2092 72.6131 13.3271 72.2387 14.1949L71.2129 13.5909C71.5013 13.064 71.7241 12.4773 71.9677 11.9223L73.1969 9.14744Z" fill="#28546C"/>
<path d="M51.8262 5.07145C51.9436 5.04426 51.9288 5.02834 52.0469 5.0905C52.2704 6.71417 52.3279 8.3761 52.5119 10.0093C52.2301 10.045 51.6473 10.194 51.4148 9.99827C51.4164 9.83898 51.4257 9.69791 51.3702 9.54733C50.8898 9.66458 50.719 10.3415 49.8004 10.4436C49.456 10.4819 49.1251 10.3842 48.8621 10.1277C48.2162 9.49785 48.2166 8.18026 48.1572 7.294C48.1159 6.69649 48.0754 6.10368 47.9885 5.51166C48.3948 5.48237 48.7941 5.44637 49.1965 5.3772C49.2201 6.21929 49.2522 8.72127 49.7763 9.25C49.9178 9.3927 50.0781 9.4357 50.2637 9.40942C50.517 9.37352 50.7615 9.22929 50.9173 9.00036C51.3961 8.29604 50.9843 6.10541 50.8988 5.20285C51.2077 5.15665 51.5168 5.11284 51.8262 5.07145Z" fill="#28546C"/>
<path d="M36.4933 9.20368C36.7662 9.15366 37.0923 9.25349 37.343 9.37041C38.0278 9.68946 38.4445 10.4605 38.7162 11.1936C37.769 11.5907 36.8402 12.108 35.9181 12.576C36.1771 12.9222 36.4159 13.1848 36.8097 13.3139C37.0183 13.3822 37.2377 13.3844 37.4274 13.2504C37.7655 13.0116 37.7743 12.6496 37.8563 12.2557C38.0257 12.1377 38.2235 12.1053 38.4163 12.0593C38.625 12.0095 38.8228 11.9198 39.0063 12.0537C38.9321 12.424 38.8692 12.8075 38.7042 13.143C38.3957 13.7701 37.8406 14.1139 37.2381 14.2865C36.7068 14.4387 36.1607 14.3788 35.6939 14.044C35.0762 13.601 34.6815 12.7952 34.5433 11.9994C34.4372 11.389 34.5197 10.7705 34.8384 10.2539C35.2366 9.60818 35.8349 9.34848 36.4933 9.20368Z" fill="#28546C"/>
<path d="M36.3098 10.2189C36.3916 10.213 36.4755 10.204 36.5575 10.2161C36.9391 10.2721 37.1903 10.6436 37.4239 10.9473C37.1177 11.1463 36.799 11.2974 36.4738 11.4519L35.6923 11.8628C35.6287 11.549 35.543 11.2184 35.6292 10.8999C35.7283 10.5321 36.0234 10.3742 36.3098 10.2189Z" fill="#F7DDB2"/>
<path d="M68.921 7.45234C69.1286 7.44848 69.3368 7.48632 69.5399 7.53144C70.0728 7.64971 70.5517 7.96557 70.8419 8.49025C71.3279 9.36891 71.1045 10.2524 70.8974 11.1734C70.5105 10.9971 68.4889 10.1209 68.1843 10.1993C68.029 10.2392 68.0244 10.2829 67.9555 10.4296C67.9546 10.7184 67.9654 10.9984 68.1193 11.2434C68.2504 11.4521 68.5321 11.6729 68.7611 11.7074C69.0098 11.7449 69.2201 11.5895 69.4059 11.426C69.4218 11.412 69.4373 11.3977 69.453 11.3835C69.4986 11.3023 69.5217 11.3117 69.5991 11.2803C69.9499 11.4394 70.2642 11.6923 70.5817 11.9202C70.2644 12.2237 69.9728 12.4842 69.563 12.6177C69.0093 12.798 68.4078 12.6859 67.9074 12.3762C67.4198 12.0743 67.0517 11.5854 66.9155 10.9744C66.7452 10.2104 66.9493 9.27939 67.3214 8.62051C67.7071 7.93742 68.2354 7.61277 68.921 7.45234Z" fill="#28546C"/>
<path d="M69.036 8.47164C69.2549 8.48465 69.4733 8.49792 69.6651 8.62974C69.8862 8.78177 70.0517 9.07477 70.1028 9.35759C70.1407 9.56737 70.1053 9.70991 69.9972 9.88688C69.8171 9.95219 69.7533 9.89634 69.5772 9.83074L68.2681 9.35743C68.489 8.93458 68.6526 8.71558 69.036 8.47164Z" fill="#F7DDB2"/>
<path d="M16.2283 28.8921C16.8722 28.862 17.5852 29.1806 18.116 29.5737C17.548 30.4969 17.0487 31.4823 16.5296 32.441C16.5787 32.4597 16.628 32.4778 16.6775 32.4954C17.0424 32.6235 17.4161 32.6748 17.7647 32.4537C17.9451 32.3392 18.0676 32.165 18.1215 31.9403C18.2138 31.5559 18.0903 31.3094 17.9329 30.979C18.1824 30.6426 18.4465 30.3173 18.7036 29.9879C18.9335 30.408 19.0774 30.8346 19.1971 31.3061C19.1324 31.6746 19.044 32.0344 18.9004 32.3749C18.6418 32.9876 18.1953 33.5094 17.6084 33.7151C16.9681 33.9396 16.2935 33.7657 15.7196 33.4078C15.1418 33.0475 14.6282 32.4618 14.4632 31.7262C14.3306 31.135 14.468 30.5267 14.7527 30.0185C15.1035 29.3923 15.6053 29.067 16.2283 28.8921Z" fill="#28546C"/>
<path d="M16.0056 30.0483C16.0698 30.0472 16.134 30.047 16.1982 30.0475C16.445 30.0491 16.588 30.0467 16.7662 30.2478C16.8339 30.69 16.2691 31.4517 16.0623 31.8358C16.0413 31.8869 15.9874 31.9265 15.9501 31.9639C15.9311 31.9589 15.9114 31.9566 15.8931 31.9491C15.7365 31.8848 15.6163 31.706 15.5419 31.5453C15.4211 31.2843 15.3608 30.9489 15.4464 30.6641C15.5423 30.3445 15.7542 30.2017 16.0056 30.0483Z" fill="#F7DDB2"/>
<path d="M12.2473 37.0573C13.3812 37.1016 14.6755 38.1705 15.5876 38.1497C15.7582 38.1459 15.8915 38.0997 16.0299 38.2267C15.9281 38.5792 15.8164 38.9825 15.6308 39.2891C15.5392 39.3077 15.4494 39.3236 15.3567 39.3347L15.2742 39.3438C15.1301 39.6493 15.3305 40.2706 15.2809 40.6459C15.222 41.0919 15.0161 41.5421 14.687 41.8109C14.6505 41.8403 14.6128 41.8676 14.5739 41.8928C14.5349 41.9178 14.4949 41.9407 14.4539 41.9612C14.4129 41.9819 14.3711 42.0002 14.3284 42.0159C14.2857 42.0318 14.2425 42.0452 14.1986 42.0561C14.1547 42.0671 14.1105 42.0756 14.0659 42.0815C14.0212 42.0873 13.9765 42.0907 13.9315 42.0916C13.8866 42.0924 13.8417 42.0907 13.7969 42.0864C13.7522 42.0822 13.7077 42.0755 13.6635 42.0662C13.2651 41.9853 12.991 41.7528 12.7702 41.3819C12.4542 40.3909 12.9601 39.4042 12.7628 38.4271C12.6212 38.3379 12.3791 38.3037 12.2215 38.3573C12.0627 38.4118 11.9808 38.4903 11.9017 38.6536C11.7103 39.048 11.8383 39.5825 11.9293 39.9878C12.0112 40.3525 11.6679 40.8035 11.501 41.1142C11.2357 40.8211 11.004 40.5388 10.9052 40.1262C10.7373 39.4249 10.9407 38.5678 11.2629 37.9489C11.5019 37.4896 11.7922 37.2014 12.2473 37.0573Z" fill="#28546C"/>
<path d="M13.5625 38.7653C13.7834 38.8303 14.0178 38.9153 14.2086 39.0592C14.4128 39.2134 14.6051 39.4736 14.6368 39.7553C14.6777 40.1192 14.546 40.3926 14.3463 40.6643C14.1994 40.7327 14.0159 40.8208 13.8526 40.7939C13.7116 40.7705 13.5934 40.7132 13.5153 40.5735C13.2594 40.1164 13.4745 39.266 13.5625 38.7653Z" fill="#F7DDB2"/>
<path d="M98.9135 45.639C98.9982 45.6577 99.0824 45.6787 99.1661 45.7022C99.6038 45.8277 99.926 46.0456 100.149 46.4945C100.453 47.1057 100.711 48.1012 100.532 48.7836C100.198 50.0554 98.3723 49.9808 97.4312 50.2078C97.0021 50.3112 96.6441 50.4615 96.2642 50.708C96.2508 50.4081 96.0705 49.7905 96.1384 49.5332C96.1914 49.332 96.4239 49.3256 96.4347 49.0804L96.1151 48.6937C95.9605 48.4659 95.838 48.2113 95.7788 47.9312C95.6776 47.4512 95.7232 46.9204 95.9695 46.5034C96.1498 46.198 96.4232 45.9855 96.7453 45.9168C98.4929 45.5444 98.2697 48.0351 99.0286 48.6416C99.1968 48.6237 99.3806 48.5747 99.4915 48.4174C99.6283 48.2235 99.684 47.828 99.6424 47.5893C99.5994 47.3415 99.4753 47.2166 99.2923 47.0904C99.176 47.0101 99.0799 46.9357 98.9773 46.8348C98.8747 46.4559 98.9142 46.0335 98.9135 45.639Z" fill="#28546C"/>
<path d="M97.0591 47.144C97.1552 47.1466 97.2712 47.1417 97.3623 47.1837C97.678 47.3285 97.9999 48.0877 98.0988 48.4339C98.1441 48.5918 98.1642 48.6685 98.0981 48.818L97.6341 48.8735C97.5504 48.888 97.4714 48.8992 97.3868 48.8867C97.355 48.8822 97.3235 48.8758 97.2923 48.8675C97.2611 48.8592 97.2305 48.849 97.2003 48.837C97.1701 48.825 97.1405 48.8113 97.1115 48.7957C97.0827 48.7804 97.0547 48.7632 97.0274 48.7442C97.0001 48.7253 96.9738 48.7049 96.9484 48.683C96.9231 48.6609 96.8989 48.6374 96.8758 48.6125C96.8527 48.5876 96.8309 48.5614 96.8104 48.534C96.7898 48.5065 96.7705 48.4778 96.7526 48.4479C96.629 48.2421 96.5809 47.9633 96.6248 47.7199C96.6791 47.4172 96.8368 47.3005 97.0591 47.144Z" fill="#F7DDB2"/>
<path d="M94.3881 32.9143C94.8297 32.8653 95.2346 32.8985 95.6467 33.1004C96.2179 33.38 96.6365 33.9303 96.8405 34.5855C97.0441 35.2389 97.0245 35.9355 96.7444 36.5565C96.3534 37.4242 95.6892 37.7604 94.9138 38.0481C94.3151 38.1147 93.7482 38.0004 93.2451 37.608C92.7336 37.2091 92.4062 36.577 92.2978 35.8946C92.1982 35.2666 92.2858 34.622 92.6169 34.0946C93.0318 33.4339 93.6943 33.0579 94.3881 32.9143Z" fill="#28546C"/>
<path d="M94.7565 34.1422C94.9762 34.1329 95.1496 34.1567 95.3552 34.2487C95.6118 34.3635 95.8299 34.4991 95.9325 34.8015C96.0358 35.1063 95.9933 35.4601 95.8697 35.7488C95.6025 36.3724 95.0883 36.6059 94.5406 36.8068C94.2446 36.834 93.9735 36.7923 93.7119 36.6233C93.5009 36.487 93.3648 36.2897 93.3033 36.0246C93.2261 35.6913 93.2904 35.302 93.4521 35.0117C93.759 34.461 94.2263 34.2884 94.7565 34.1422Z" fill="#F7DDB2"/>
<path d="M8.78978 45.8039C8.88453 45.7987 8.96324 45.7865 9.05365 45.8272C9.11156 45.8531 9.10696 45.8518 9.12552 45.9267C9.22462 46.3269 9.10904 46.8401 8.93548 47.1959C8.69408 47.2172 8.48218 47.2662 8.29892 47.4575C8.02282 47.7457 7.90947 48.2684 7.91217 48.6777C7.9139 48.9379 7.98217 49.308 8.186 49.471C8.30109 49.563 8.40284 49.6058 8.54428 49.5646C9.11175 49.3992 9.51693 47.9885 9.78399 47.4352C10.057 46.8699 10.4173 46.2989 10.9948 46.1193C11.4703 45.9713 11.9714 45.9949 12.4049 46.2764C12.8906 46.5913 13.1991 47.135 13.3252 47.7397C13.5038 48.5958 13.309 49.7654 12.8779 50.4968C12.5002 51.138 11.9903 51.3959 11.3475 51.5553C11.1441 51.5553 11.0294 51.5994 10.8683 51.4527C10.7842 51.109 10.8885 50.7161 10.8629 50.3473L10.8558 50.2548C11.2998 50.1926 11.7101 50.1088 12.0178 49.7058C12.3069 49.3272 12.3718 48.7565 12.3208 48.2767C12.2872 47.9605 12.1474 47.7332 11.9203 47.5489C11.7775 47.4328 11.61 47.361 11.4328 47.4201C10.8495 47.6148 10.4614 49.0721 10.1742 49.6449C9.90474 50.1825 9.51106 50.691 8.95742 50.8462C8.54869 50.961 8.02114 50.8859 7.66801 50.6205C7.30006 50.3439 7.06043 49.8696 6.97582 49.3886C6.82842 48.5512 6.96896 47.4777 7.39506 46.7654C7.74899 46.1737 8.1918 45.9407 8.78978 45.8039Z" fill="#28546C"/>
<path d="M59.8036 5.16644C60.0837 5.26234 60.3841 5.2727 60.6698 5.34971C60.7973 5.38407 60.7705 5.35191 60.8479 5.49254L60.7661 5.84383C60.8202 5.93566 60.7916 5.93957 60.8787 5.929C61.337 5.87343 61.6776 5.48725 62.1911 5.49837C62.7908 5.51136 63.2708 6.45865 63.4536 6.45383C64.0323 6.43862 64.3715 5.87441 65.0406 6.06027C65.4931 6.18589 65.8346 6.635 66.0727 7.05595C66.1152 8.4523 65.7242 9.98314 65.4968 11.356L64.3325 11.0962C64.5012 10.3475 65.0674 7.91441 64.7683 7.26148C64.7006 7.11352 64.6258 7.01648 64.4765 6.97908C64.1684 6.90195 63.8913 7.01482 63.6503 7.21807C63.104 8.00688 62.9849 9.81963 62.8155 10.8304C62.4472 10.7045 62.0534 10.661 61.6725 10.5996C61.6866 10.544 61.7002 10.4881 61.7118 10.4317C61.8602 9.70048 62.431 7.18896 62.058 6.6444C61.9639 6.50717 61.8454 6.45023 61.6959 6.42742C61.4881 6.39575 61.2378 6.48102 61.0717 6.62041C60.4516 7.14068 60.2702 9.41609 60.1623 10.2734C59.7715 10.1962 59.3823 10.1248 58.9883 10.072C59.2968 8.45407 59.5954 6.80406 59.8036 5.16644Z" fill="#28546C"/>
<path d="M93.8356 25.3756C93.9352 25.4329 93.9121 25.4033 93.975 25.4969C94.4305 26.1746 95.4131 27.8142 95.6717 28.5741C95.7697 28.8621 95.8115 29.1601 95.7741 29.4667C95.7059 30.0242 95.3919 30.5008 94.9934 30.8266C94.5525 31.1874 93.9812 31.4049 93.4351 31.2799C92.5278 31.0721 92.0097 29.9768 91.5378 29.1798C91.5325 29.1687 91.5276 29.1575 91.5221 29.1469C91.4602 29.0269 91.4241 28.8937 91.3021 28.8574C90.6284 29.2749 89.9873 29.7741 89.3423 30.2453C89.1413 29.848 88.8945 29.469 88.6685 29.0886C89.5663 28.4938 90.4419 27.8427 91.3238 27.2176C92.1657 26.6207 93.037 26.043 93.8356 25.3756Z" fill="#28546C"/>
<path d="M93.6192 27.1966C93.8617 27.2689 94.0962 27.7095 94.2289 27.9552C94.4359 28.3393 94.6074 28.845 94.493 29.297C94.4371 29.5175 94.331 29.6935 94.148 29.8021C93.8942 29.9524 93.622 29.941 93.3528 29.8615C92.8515 29.4323 92.5409 28.7908 92.167 28.231C92.6396 27.8668 93.1321 27.5353 93.6192 27.1966Z" fill="#F7DDB2"/>
<path d="M30.8889 10.3595C31.2404 10.3063 31.6007 10.358 31.9152 10.5519C32.486 10.9038 32.7141 11.5699 32.8699 12.2363C32.7478 12.92 32.4881 13.3203 32.0968 13.8442C33.3173 13.8444 34.2371 14.7113 35.3574 15.1052C34.9181 15.3946 34.4892 15.7076 34.0568 16.0104C33.323 15.6332 32.4733 15.0646 31.6936 14.8603C31.0742 14.6981 30.7308 14.9023 30.2221 15.2578C30.359 15.4386 30.4724 15.6375 30.5898 15.8343C30.9391 16.448 31.2814 17.0666 31.6166 17.69C31.2522 17.8919 30.9057 18.1537 30.5586 18.3916C30.2328 17.6752 29.8094 16.9901 29.4292 16.3066L27.3357 12.55C28.493 11.8507 29.6192 10.7584 30.8889 10.3595Z" fill="#28546C"/>
<path d="M30.6853 11.647C30.8104 11.6433 30.9458 11.6366 31.0687 11.6681C31.2552 11.7157 31.4292 11.8875 31.5263 12.0666C31.6287 12.2553 31.6929 12.4612 31.6416 12.6825C31.4898 13.3382 30.3893 13.9116 29.8878 14.2524L29.8229 14.2993C29.5236 14.1532 29.0914 13.1316 28.9075 12.7843C29.516 12.4761 30.0879 11.9973 30.6853 11.647Z" fill="#F7DDB2"/>
<path d="M22.3777 31.5949C22.6166 30.7859 23.3628 29.9016 23.8379 29.234C27.2116 24.4925 31.7508 20.4808 36.5801 17.7627C42.5448 14.4061 48.4567 12.9809 55.117 12.9761C59.3557 12.9731 63.4886 13.6079 67.5205 15.1135C67.837 15.2313 68.1522 15.3536 68.466 15.4802C68.7799 15.6068 69.0923 15.7378 69.4033 15.8731C69.7142 16.0084 70.0236 16.148 70.3316 16.292C70.6394 16.4359 70.9455 16.5841 71.2501 16.7366C71.5547 16.889 71.8575 17.0457 72.1587 17.2066C72.4597 17.3674 72.759 17.5325 73.0565 17.7018C73.3539 17.871 73.6495 18.0443 73.9431 18.2217C74.2368 18.3991 74.5284 18.5806 74.818 18.7662C75.1076 18.9518 75.3951 19.1414 75.6804 19.335C75.9658 19.5285 76.2491 19.726 76.5301 19.9275C76.8111 20.1289 77.0898 20.3343 77.3664 20.5435C77.6429 20.7527 77.917 20.9657 78.1888 21.1826C78.4605 21.3994 78.7299 21.62 78.9969 21.8445C79.2637 22.0687 79.528 22.2967 79.7899 22.5284C80.0518 22.7601 80.3111 22.9954 80.5677 23.2343C80.8242 23.4733 81.0782 23.7157 81.3296 23.9618C81.5809 24.2076 81.8294 24.457 82.0751 24.7099C82.3208 24.9629 82.5637 25.2192 82.8039 25.4789C83.0439 25.7385 83.2811 26.0015 83.5154 26.2677C83.7496 26.534 83.9808 26.8035 84.2091 27.0763C84.4374 27.3489 84.6627 27.6248 84.8848 27.9038C85.1071 28.1828 85.3262 28.4649 85.542 28.7499C85.758 29.035 85.9708 29.323 86.1805 29.614C86.39 29.9049 86.5963 30.1988 86.7993 30.4956C87.0023 30.7923 87.2021 31.0917 87.3985 31.3941C87.5949 31.6964 87.788 32.0015 87.9778 32.3092C88.1674 32.6169 88.3537 32.9271 88.5366 33.2398C88.7194 33.5527 88.8987 33.8681 89.0745 34.186C89.2503 34.5039 89.4226 34.8241 89.5914 35.1467C89.7601 35.4694 89.9253 35.7944 90.0869 36.1216C90.2485 36.4488 90.4064 36.7783 90.5606 37.11C90.715 37.4416 90.8656 37.7753 91.0124 38.1112C91.3348 38.8325 91.639 39.5634 91.9249 40.3039C92.2107 41.0442 92.4776 41.7931 92.7258 42.5505C92.9742 43.3078 93.2032 44.0723 93.4131 44.844C93.6229 45.6158 93.8133 46.3936 93.9843 47.1775C94.1551 47.9612 94.3062 48.7497 94.4374 49.5431C94.5687 50.3364 94.68 51.1332 94.7714 51.9335C94.8627 52.734 94.9339 53.5366 94.9849 54.3413C95.036 55.1461 95.0669 55.9519 95.0775 56.7587C95.0953 57.8633 95.1385 59.4827 94.971 60.5448C94.9128 60.3553 94.8927 60.1941 94.8811 59.9943C94.7318 62.2163 94.5527 64.4222 94.1759 66.6126C94.1232 66.9207 94.0676 67.2281 94.009 67.535C93.9505 67.8418 93.8891 68.1479 93.8249 68.4532C93.7606 68.7586 93.6935 69.0632 93.6236 69.3669C93.5538 69.6708 93.4811 69.9738 93.4054 70.2758C93.3298 70.5778 93.2514 70.8789 93.1702 71.1792C93.089 71.4795 93.005 71.7787 92.9181 72.0769C92.8314 72.3751 92.7418 72.6723 92.6493 72.9684C92.5569 73.2647 92.4618 73.5598 92.364 73.8537C92.266 74.1476 92.1653 74.4403 92.0619 74.7317C91.9587 75.0234 91.8527 75.3137 91.7437 75.6028C91.635 75.8918 91.5235 76.1795 91.4094 76.4657C91.2952 76.7522 91.1784 77.0373 91.0588 77.321C90.9393 77.6046 90.8171 77.8869 90.6923 78.1676C90.5675 78.4485 90.4401 78.7278 90.3101 79.0055C90.1801 79.2833 90.0475 79.5595 89.9124 79.8342C89.7772 80.109 89.6394 80.382 89.499 80.6534C89.3588 80.9249 89.216 81.1946 89.0706 81.4628C88.9253 81.7309 88.7775 81.9973 88.6272 82.2618C88.4768 82.5264 88.324 82.7892 88.1689 83.0501C88.0136 83.3112 87.8559 83.5703 87.6959 83.8276C87.5358 84.085 87.3734 84.3405 87.2085 84.5939C87.0437 84.8474 86.8765 85.0988 86.7069 85.3483C86.5372 85.598 86.3654 85.8455 86.1913 86.0911C86.0171 86.3366 85.8406 86.5799 85.6619 86.8211C85.4831 87.0625 85.302 87.3017 85.1189 87.539C84.9357 87.776 84.7503 88.0109 84.5627 88.2436C84.375 88.4763 84.1852 88.7068 83.9933 88.935C83.8013 89.1634 83.6073 89.3894 83.4112 89.613C83.2151 89.8367 83.0169 90.0581 82.8166 90.2772C82.6163 90.4963 82.414 90.7129 82.2096 90.9272C82.0053 91.1414 81.7989 91.3532 81.5905 91.5626C81.3822 91.772 81.172 91.979 80.9599 92.1836C79.9115 93.1958 78.7921 94.1355 77.6744 95.049C77.5163 95.1442 77.3809 95.2146 77.1997 95.2297C76.5749 95.2818 75.893 95.147 75.2651 95.0908C73.9688 94.9744 72.6555 94.849 71.355 94.8285C70.7967 94.7883 70.2454 94.7658 69.6857 94.7653C68.6655 94.5992 67.541 94.6507 66.5079 94.615C63.542 94.545 60.5758 94.5111 57.6092 94.5134C53.9368 94.5025 50.2646 94.515 46.5924 94.551C44.4796 94.5756 42.2839 94.5224 40.1841 94.764C38.4177 94.7653 36.6342 94.9143 34.8729 95.0625C34.1861 95.1201 33.4284 95.1198 32.7573 95.2675C32.3872 95.3056 32.2021 95.2035 31.8827 95.0047C31.5959 94.7111 31.2257 94.4571 30.9142 94.1915C30.135 93.527 29.3487 92.8607 28.6125 92.1364C28.1022 91.6405 27.6033 91.1307 27.1157 90.6069C26.6283 90.083 26.1528 89.5458 25.6893 88.9952C25.2257 88.4445 24.7747 87.8813 24.3363 87.3055C23.8979 86.7296 23.4726 86.1419 23.0605 85.5422C22.6483 84.9423 22.2497 84.3314 21.8649 83.7094C21.4799 83.0873 21.1091 82.4548 20.7525 81.8119C20.3958 81.169 20.0536 80.5164 19.726 79.8542C19.3985 79.1921 19.0859 78.5213 18.7882 77.8416C18.3328 76.8208 17.8863 75.7709 17.5308 74.7006C17.2749 73.9296 17.0876 73.0252 16.7569 72.2993C16.7463 72.276 16.734 72.2539 16.7226 72.2314C16.5674 71.3443 16.2542 70.4551 16.0508 69.5735C13.7502 59.6035 14.4661 48.551 18.424 39.2097C19.0993 37.6159 19.8222 36.0656 20.6557 34.568C21.213 33.5666 21.8439 32.6111 22.3777 31.5949Z" fill="#28546C"/>
<path d="M48.7383 27.366L49.1318 27.1574C49.2111 27.1159 49.3169 27.0757 49.3853 27.0133C49.5117 26.8979 49.5309 26.7147 49.5535 26.5439C49.5692 26.4258 49.5785 26.3278 49.6224 26.2161C49.7486 25.896 50.3362 24.7773 50.5645 24.5759C50.6177 24.529 50.7519 24.4925 50.8192 24.4624C50.9444 24.2444 50.8138 23.8555 50.867 23.5864C51.0188 22.8193 51.2608 21.9548 51.5309 21.2271C52.1035 19.6849 53.2032 19.9684 54.3672 19.5449C54.7829 19.3936 55.1563 19.1126 55.5665 18.9517C55.7102 18.8952 55.7726 18.8869 55.9076 18.9628C56.1054 19.3645 56.1601 20.0324 56.2817 20.4888C56.6343 20.4937 57.1131 20.7482 57.4232 20.5841C57.5006 20.5429 57.5774 20.4945 57.6633 20.4787C57.9741 20.4216 58.0772 20.587 58.3247 20.7435C58.6124 20.9254 58.73 20.7904 59.0075 20.7365C59.2247 20.6945 59.6102 20.9941 59.8045 21.1107C59.9963 20.9788 60.1248 20.8342 60.3586 20.8054C60.5826 20.8542 60.7214 21.0117 60.8913 21.1716L61.8424 21.2069C61.6617 21.4787 61.4586 21.7042 61.2652 21.9608C61.2337 22.0022 61.1064 22.1655 61.0958 22.2106C61.0401 22.4438 61.5482 23.6313 61.557 24.0669C61.5665 24.5254 61.5575 25.0056 61.484 25.4576C61.4022 25.9616 61.2518 26.2936 61.2774 26.829C61.4759 26.7774 62.9375 26.5193 63.0787 26.532C63.4011 26.561 63.6305 26.8852 63.9917 26.8692C63.9968 26.8689 64.1276 26.8598 64.1394 26.8617C64.3635 26.8961 64.2732 27.3564 64.3862 27.5534C64.4506 27.6656 65.0168 27.8615 65.258 28.1152C66.4791 27.6373 67.1476 27.7114 68.3339 28.2233C68.1102 28.584 67.6442 29.335 67.6492 29.7681C67.6562 30.3468 68.5877 30.3079 68.8266 30.6479C69.0001 30.8952 68.8596 31.4124 68.867 31.7068C68.8791 32.1987 69.1848 32.5118 69.4741 32.8344C69.4362 33.2208 69.2694 34.4114 69.2996 34.7423C69.3135 34.8919 69.3525 34.8906 69.4438 34.9748C69.5261 34.9865 69.6259 34.9916 69.704 35.0209C69.9436 35.1111 69.8066 35.313 69.9448 35.4903C70.2632 35.8984 70.7319 36.0013 70.9382 36.5373C70.9958 36.686 71.0216 36.777 71.139 36.8799C71.7188 36.905 71.9376 37.194 72.3192 37.6454C72.8271 38.2467 73.1737 39.062 73.1282 39.9052C73.1104 40.2377 73.0249 40.5472 73.017 40.8867L73.0156 40.9675C72.9183 41.1948 72.4432 41.4737 72.257 41.6755L72.205 41.7333C72.2924 41.9723 72.4021 42.1993 72.5075 42.4287C72.8645 42.4331 73.2204 42.4152 73.5772 42.3986C73.487 42.1822 73.3724 41.9451 73.3352 41.7087C73.2379 41.0948 73.592 40.5899 73.9007 40.1307C74.1498 40.3209 74.4645 40.6153 74.7774 40.6026C74.9576 40.2831 74.6579 39.7829 74.9676 39.4468C75.1899 39.205 75.5557 39.2211 75.8422 39.2182C76.0218 39.4302 76.2115 39.6326 76.3966 39.8384C76.4449 40.1903 76.4629 40.4243 76.676 40.6978C77.286 40.9852 77.5032 39.927 78.2942 39.6834L78.3732 39.6598C78.4393 39.5474 78.419 39.4927 78.4229 39.3579C78.4303 39.0879 78.4354 38.8515 78.6351 38.6631C78.7455 38.5589 78.9149 38.5037 79.0559 38.5348C79.3674 38.6038 79.5485 39.0389 79.6844 39.3229C79.9531 39.4515 80.2136 39.6093 80.4754 39.7555C80.4761 40.1696 80.5047 40.6327 80.3989 41.0328C80.3464 41.2314 80.2411 41.4055 80.1519 41.5851C79.9252 42.0423 80.0105 42.5898 80.1073 43.0815C80.0114 43.3121 79.854 43.5215 79.7764 43.755C79.7318 43.8898 79.7371 43.9069 79.7882 44.0295L79.9587 44.0673L80.0234 44.0033C80.0324 43.818 80.0188 43.5765 80.1512 43.442C80.5731 43.0138 82.086 43.2621 82.6635 43.2419C82.8537 43.5847 83.0438 43.8677 83.2886 44.1634C83.2888 44.7429 83.2948 45.3229 83.2666 45.9019C83.5021 46.2782 83.6895 46.6972 83.928 47.0668C84.1632 47.4314 84.4846 47.7515 84.749 48.0915C85.0078 48.4242 85.2259 48.8101 85.4529 49.1711C85.2696 49.3279 85.0958 49.4997 84.9195 49.6658V50.667C85.2634 51.0132 85.5418 51.1684 85.9924 51.29C85.924 51.4906 85.8566 51.7741 85.7415 51.9462C85.634 52.1066 85.5307 52.1216 85.3641 52.1613C85.2907 52.1527 85.2167 52.1239 85.1437 52.1359C84.9787 52.1626 84.2152 52.6827 84.0624 52.8156C83.9802 52.8871 83.928 52.9525 83.8834 53.0597L83.9312 53.146C84.2559 53.1984 84.7853 52.9512 85.0457 52.7247C85.1555 52.6293 85.2477 52.5171 85.348 52.4108C85.3678 52.3898 85.3891 52.3704 85.4094 52.3502C85.8207 52.337 86.0431 52.0882 86.3818 51.8757C86.6369 51.9661 86.9008 52.0532 87.1467 52.1721C87.4822 52.3341 87.8062 52.698 88.1822 52.5552C88.3319 52.3756 88.4102 52.1628 88.5029 51.9431C89.2142 51.9319 89.6863 51.9231 90.3294 52.3038C89.8011 52.883 89.4637 53.5972 89.3318 54.4214C87.9167 55.0148 86.0075 55.8877 85.0591 57.2428C84.8359 57.334 84.5369 57.5097 84.3028 57.4105C84.2344 57.3812 84.1694 57.3205 84.1096 57.2773C84.0657 57.2456 84.0199 57.2171 83.9749 57.1873C83.7239 57.3045 83.345 57.694 83.2474 57.9788C83.1113 58.3763 83.2435 58.6702 82.8486 58.8799C82.4139 59.1103 82.092 59.1004 81.7944 59.5729C80.7046 59.909 80.0172 60.9783 78.8795 61.189C78.8379 61.2828 78.8225 61.3413 78.8024 61.4442C78.74 61.7643 77.7306 62.7009 77.4589 62.8618C77.03 63.1155 76.4146 63.3262 76.2533 63.9119C76.2256 64.0125 76.2094 64.0656 76.2434 64.1607C76.3654 64.5023 76.3402 64.6251 76.2228 64.9568C76.1576 65.1408 76.1359 65.2502 76.2055 65.4412C76.2561 65.5804 76.3508 65.6985 76.4349 65.8141C76.4587 65.9901 76.4569 66.1425 76.4453 66.3182C76.8266 67.0832 77.3387 67.5212 78.1015 67.7562C79.268 68.1154 80.1551 67.8202 81.2987 67.8145C81.4261 67.4766 81.6296 67.2462 81.8538 66.9865C82.1981 66.9871 82.548 66.9718 82.8909 67.0117L82.9285 67.1262C83.0198 67.4092 83.1566 68.4852 83.1908 68.5368C83.4277 68.8939 83.5194 68.5936 83.8432 69.3837C83.8258 69.4068 83.808 69.4296 83.7912 69.4529C83.3625 70.0391 83.5012 70.7798 82.6589 70.8664C82.2471 70.9086 81.4549 70.6114 81.1571 70.8845C80.8396 71.1761 79.4404 71.2035 78.9701 71.3124L79.5744 71.9121C79.5622 72.4381 79.5199 72.8665 79.366 73.369C79.1776 73.3615 78.9995 73.3317 78.8273 73.433C78.9121 73.5598 79.152 73.658 79.2932 73.6935C79.3845 73.7166 79.4683 73.6847 79.558 73.6805C79.8401 73.6673 80.1822 73.9029 80.3679 74.1315C80.617 74.4381 80.7185 74.896 80.6977 75.3013C80.676 75.7268 80.4869 76.1472 80.3991 76.5637C80.0148 76.6899 79.594 76.9615 79.2105 77.0174C78.9817 76.8415 79.0055 76.2814 78.8278 76.2063C78.7393 76.7557 78.8564 77.3486 78.8019 77.9092C79.1065 78.3041 79.5954 78.7903 79.5728 79.3545C79.5573 79.7412 79.3234 80.0817 79.1282 80.381C78.2224 80.3984 77.857 80.4331 77.0898 79.8013L76.8842 79.0889L76.1948 79.9223C75.9175 79.9039 75.6393 79.8775 75.3613 79.8863C75.0272 79.6525 74.645 79.3161 74.2399 79.2928C74.1424 79.3434 74.05 79.3949 73.9545 79.4506C73.6675 79.6175 73.3036 79.4247 73.0417 79.5893C72.9472 79.9625 72.9747 80.7052 72.6558 80.9154C72.4395 81.0577 72.1422 80.9942 71.9658 81.1642L71.961 81.2565C71.927 81.8491 71.7833 82.0256 71.4706 82.4841C70.9484 82.6981 70.3529 83.0151 69.8124 82.7352C69.4443 83.0752 69.832 84.0709 69.1596 84.0235C68.691 83.9903 68.1807 83.5432 67.897 83.1496C67.6155 82.7585 67.0103 81.817 67.0517 81.2935C67.0732 81.0209 67.2881 80.8071 67.4727 80.6472C67.5827 80.5521 67.6968 80.5044 67.8357 80.5526C67.9968 80.6086 68.1514 80.7412 68.3113 80.8115C68.6226 80.9481 69.2241 81.0533 69.5506 81.0061C69.6985 80.7376 69.6807 80.5679 69.6174 80.2693C69.5473 79.9384 69.3569 79.2959 69.5279 78.9948C69.6017 78.8652 69.7031 78.7406 69.7907 78.6229C69.4808 78.363 69.2895 78.151 69.2222 77.7094C69.1427 77.1854 69.4179 76.6891 69.6818 76.2869C69.9326 76.4087 70.2886 76.6546 70.5542 76.5898C70.7286 76.3325 70.7709 75.9982 70.8691 75.6978C70.9038 75.5921 70.9167 75.5314 70.8945 75.4174C70.6205 75.2285 70.3963 75.0587 70.1756 74.7923C70.1844 74.523 70.2138 74.2756 70.1084 74.0255C69.9843 73.928 69.9258 73.8959 69.7713 73.9216C69.5527 73.9576 69.3486 74.034 69.1259 74.0597C69.0103 74.3328 68.8918 74.6034 68.7961 74.8861C67.866 74.8921 66.9109 74.4904 66.0973 74.0086L66.0619 73.9296C66.025 73.8485 65.9857 73.7723 65.9432 73.6948C65.6019 73.5922 65.292 73.7479 64.9759 73.878C64.9675 73.4343 64.8985 72.9951 65.1667 72.6328C65.3107 72.5369 65.4357 72.5374 65.5975 72.5283C65.7135 72.4104 65.7417 72.3342 65.7514 72.1551C65.7657 71.8817 65.7331 71.5886 65.707 71.316C65.9758 71.1864 66.2861 71.2383 66.5287 71.0511C66.5576 70.9669 66.5604 71.0019 66.5197 70.9081C66.4453 70.7363 66.3286 70.6596 66.1867 70.565C66.0631 70.5844 65.9628 70.6217 65.8466 70.6725C65.7095 70.6355 65.5732 70.595 65.4378 70.551C65.2518 70.7793 65.3599 71.1351 65.2326 71.3505C65.1141 71.5511 64.8259 71.6024 64.7314 71.8644C64.6006 72.2269 64.7647 72.5719 64.5227 72.9064C64.428 72.745 64.3147 72.4882 64.1296 72.4521C63.9686 72.421 63.9254 72.4617 63.7971 72.5542C63.7232 72.7268 63.7183 72.7582 63.732 72.9492C63.8295 73.1096 63.8521 73.1412 64.0056 73.2283C64.1403 73.2156 64.2503 73.185 64.379 73.1423C64.2826 73.5095 64.134 73.8656 64.0296 74.2331C63.8084 74.2185 63.5834 74.1823 63.3615 74.1989C62.8458 74.2372 62.5003 74.4471 61.9686 74.273L61.8872 74.2455L61.8292 74.2929L61.8664 75.0844C61.6677 75.3249 61.3969 75.5835 61.2844 75.888C61.4094 75.9526 61.5159 75.8974 61.6485 75.8691C62.0097 76.0306 62.2366 76.7979 62.3882 77.1846C62.1992 77.4015 62.0284 77.642 61.8528 77.8732C62.1137 78.0012 62.4948 78.1328 62.6593 78.4031C62.9756 78.9222 63.3227 80.4111 63.197 81.0564C63.1707 81.1909 63.1965 81.145 63.0963 81.2147C62.9819 81.1808 62.9204 81.1608 62.8007 81.1746C62.7739 81.4122 62.9634 81.6084 62.9347 81.8406C62.9063 82.0707 62.766 82.1632 62.8224 82.4185L63.0031 82.6059C63.0916 82.6961 63.1804 82.7699 63.2178 82.9047C63.5774 84.1945 60.0864 84.725 59.6391 86.0892C59.5898 86.2395 59.6155 86.3077 59.6776 86.4427C59.8833 86.5899 60.132 86.5808 60.3677 86.6324C60.4779 86.7371 60.5176 86.7918 60.5285 86.9592C60.5532 87.3401 60.5269 88.0435 60.2597 88.3133C60.0827 88.4921 59.9291 88.4794 59.7065 88.4667L59.6381 88.462C59.4748 88.5797 59.3946 88.8179 59.3005 89.0063C58.7891 89.4284 58.6029 88.6948 58.1966 88.7386C58.0531 88.8969 57.942 89.0257 57.752 89.1078C57.606 89.1037 57.4306 89.0607 57.3227 88.9363C57.2044 88.7994 57.2492 88.6629 57.2594 88.4903C56.9969 88.1269 56.2623 88.1049 55.8586 88.0308C55.9083 87.6742 55.9108 87.3057 55.9274 86.9454C55.5392 86.6827 55.1602 86.4455 54.7297 86.2807C54.1375 86.054 53.2737 86.0026 52.7806 85.5768C52.5033 85.3374 52.3265 84.9873 52.0878 84.7063C51.811 84.3803 51.6 84.3495 51.2081 84.3357C50.8312 83.1379 50.7949 83.749 50.3029 83.1198C50.2898 83.1027 50.2775 83.0845 50.2646 83.0672C50.046 82.7728 49.9676 82.2791 49.8708 81.9116C50.0296 81.6923 50.3979 81.4169 50.4048 81.1401L50.1957 80.9053C50.1717 80.6956 50.3369 80.5243 50.4048 80.3204L50.3484 80.2139C49.9069 80.0397 49.9022 80.9698 49.4491 81.0701C48.7658 81.2217 48.7609 80.1724 48.4973 79.7557C48.2971 79.4392 47.9297 79.1765 47.6598 78.9253C47.7017 78.5524 47.6806 78.1733 47.6716 77.7983C47.8137 77.6568 47.9466 77.5402 48.0284 77.3422C48.0205 77.2398 48.0062 77.189 47.9491 77.1074C47.8368 76.9456 47.7661 76.8435 47.7139 76.6427C47.6811 76.5165 47.6746 76.4465 47.5824 76.3571C47.3382 76.5344 47.0951 77.2483 46.9389 77.5596L46.5788 77.5539C46.3808 77.5523 46.2486 77.5731 46.0755 77.4427C46.0522 77.3743 46.0295 77.3004 45.9956 77.2377C45.7837 76.8441 45.2425 77.0986 44.9111 77.0058C44.7554 76.9622 44.6964 76.8969 44.6119 76.7515C44.6066 76.566 44.6133 76.4076 44.5287 76.2413C44.3683 76.1363 44.2137 76.056 44.0316 76.0093C43.8479 75.9621 43.7437 75.9785 43.5873 76.0928C43.5533 76.2553 43.5075 76.51 43.4031 76.6354C43.2961 76.7637 43.2557 76.7606 43.111 76.7632C42.6699 76.5206 42.8406 76.1744 42.595 75.8238C42.2763 75.3692 41.4297 75.2738 41.0967 74.8553C41.1336 74.7223 41.1618 74.5992 41.1789 74.4611L41.099 74.3691C40.589 74.3764 40.3487 74.0348 39.9031 73.8251C39.584 73.8158 39.1443 74.0913 38.8459 74.2289C38.7369 74.1198 38.6075 73.9547 38.4651 73.9091C38.3577 73.8749 38.1594 74.3067 38.0083 74.3865C37.1232 74.1457 36.1763 74.1265 35.3816 73.5963C34.2234 74.224 32.9462 73.9552 31.7453 73.6124C31.7328 73.5927 31.7199 73.5735 31.7083 73.5533C31.6898 73.5217 31.6732 73.4893 31.6552 73.4577C31.3668 72.9469 31.4264 72.2272 31.154 71.6586C31.019 71.3769 30.6844 71.0255 30.6786 70.7124C30.6779 70.6743 30.6793 70.6365 30.6795 70.5987C30.6047 70.4115 30.4018 70.3361 30.247 70.2457C30.2678 70.0029 30.3107 69.7836 30.3676 69.5493C30.5236 68.9077 30.2994 68.8136 30.0108 68.3246C29.9509 68.2232 29.9121 68.0939 29.8479 67.9993C29.7055 67.7902 29.4876 67.8327 29.2709 67.7829C29.2442 67.6357 29.2163 67.4889 29.187 67.3424C29.0546 66.6851 29.0474 66.4268 28.5173 66.0531C28.3724 65.5288 28.6821 63.8347 28.6467 63.0533C27.7887 62.9445 26.8565 62.9595 25.9948 63.0199C25.8178 62.8569 25.6082 62.6882 25.4566 62.4967C25.162 62.125 23.8127 59.9396 23.7462 59.5625C23.6429 58.9786 24.2252 58.5515 24.3525 58.0472C24.448 57.6691 24.3928 57.1617 24.5515 56.818C24.6599 56.5832 24.9027 56.4264 25.0162 56.186C25.1239 55.9584 25.0941 55.7547 25.0305 55.5235C24.9346 55.1747 24.9335 55.0902 25.0742 54.7655L25.0271 54.6481C24.9929 54.6367 24.9587 54.6258 24.9245 54.6142C24.5998 54.5014 24.6426 54.1855 24.5053 53.8883C24.2647 53.7224 22.9168 53.9748 22.4896 53.9779C22.2985 53.7605 22.1018 53.483 21.8749 53.3161C20.8616 52.5702 20.6388 53.0706 19.7169 51.6544C19.7069 50.5812 19.538 50.4444 19.7853 49.2836C20.2929 48.7407 20.1551 48.0415 20.4715 47.3933C20.894 46.528 21.9611 45.8042 22.6721 45.248C22.7964 45.2387 22.8981 45.2418 23.009 45.1721C23.0007 45.0049 22.9998 44.8435 23.0049 44.6758C23.1197 44.5073 23.1988 44.4905 23.3758 44.4187C23.7032 44.2855 23.8673 44.0238 24.072 43.7224C24.301 43.3847 24.5591 43.0395 24.725 42.6565C24.9536 42.1285 25.0735 41.1642 25.4231 40.7561C26.0531 40.0206 26.8924 40.1139 27.4151 39.0692C27.8798 39.0736 28.2738 39.0516 28.7223 38.909C29.2792 39.6642 29.9593 40.8812 30.2733 41.8108C30.3188 41.9456 30.292 42.0726 30.3156 42.205C30.3442 42.3662 30.384 42.4375 30.5171 42.508C31.1981 42.8684 33.2083 41.6105 33.8779 41.3034C34.1587 41.1746 34.4686 41.0937 34.7611 41.0069C35.8518 41.6582 36.6833 40.4433 37.8666 41.0714C38.1661 40.9629 39.0682 40.6666 39.2284 40.4057C39.2113 40.2675 39.2011 40.1253 39.2164 39.9864C39.2554 39.6241 39.6593 38.1445 39.8777 37.967C40.3669 37.5692 41.0093 37.1579 41.4109 36.6614C41.7885 36.1946 41.9799 35.5001 42.2428 34.9494C42.4808 34.45 42.7702 34.0348 43.1013 33.6101C43.0789 33.1594 43.0075 32.6846 43.2446 32.2868C43.5052 31.8499 43.999 32.0824 44.3766 31.9468C44.5162 31.8968 44.5603 31.79 44.6274 31.6573C44.7239 31.4669 44.8289 31.3153 44.9578 31.1517C45.3213 31.195 45.8267 31.2049 46.1821 31.104C46.2948 31.0722 46.3078 31.0688 46.3697 30.9553C46.3022 30.7088 46.2495 30.5899 46.3357 30.3476C46.515 30.1905 46.7052 30.1872 46.9254 30.1571C47.5099 29.5232 48.0205 28.9095 48.7496 28.4837L48.7383 27.366Z" fill="#F7DDB2"/>
<defs>
<linearGradient id="paint0_linear_0_1" x1="264.174" y1="-168.963" x2="264.174" y2="-169.231" gradientUnits="userSpaceOnUse">
<stop stop-color="#C9D4DD"/>
<stop offset="1" stop-color="#FDFCFD"/>
</linearGradient>
</defs>
</svg>