<svg xmlns="http://www.w3.org/2000/svg" width="22" height="22" viewBox="0 0 22 18" fill="none"><mask id="path-1-inside-1_2432_350" fill="white"><path d="M19.3013 10.9999H17.468C17.2249 10.9999 16.9917 11.0964 16.8198 11.2683C16.6479 11.4402 16.5513 11.6734 16.5513 11.9165C16.5513 12.1596 16.6479 12.3928 16.8198 12.5647C16.9917 12.7366 17.2249 12.8332 17.468 12.8332V14.6665H16.3808C16.4897 14.373 16.5471 14.0629 16.5504 13.7499C16.5504 13.1445 16.3506 12.5561 15.9821 12.0758C15.6136 11.5956 15.0969 11.2504 14.5122 11.0937C13.9275 10.937 13.3074 10.9776 12.7481 11.2093C12.1888 11.4409 11.7216 11.8506 11.4189 12.3749C11.3578 12.4791 11.3179 12.5945 11.3015 12.7143C11.2851 12.834 11.2926 12.9559 11.3235 13.0728C11.3544 13.1896 11.4081 13.2992 11.4815 13.3953C11.555 13.4913 11.6467 13.5719 11.7514 13.6323C11.8561 13.6927 11.9717 13.7319 12.0916 13.7475C12.2114 13.7631 12.3332 13.7548 12.4499 13.7231C12.5666 13.6914 12.6758 13.637 12.7713 13.5629C12.8669 13.4888 12.9468 13.3966 13.0066 13.2915C13.087 13.1522 13.2028 13.0365 13.3421 12.956C13.4814 12.8755 13.6395 12.8332 13.8004 12.8332C14.0435 12.8332 14.2767 12.9298 14.4486 13.1017C14.6205 13.2736 14.7171 13.5067 14.7171 13.7499C14.7171 13.993 14.6205 14.2261 14.4486 14.398C14.2767 14.5699 14.0435 14.6665 13.8004 14.6665C13.5573 14.6665 13.3241 14.7631 13.1522 14.935C12.9803 15.1069 12.8838 15.3401 12.8838 15.5832C12.8838 15.8263 12.9803 16.0595 13.1522 16.2314C13.3241 16.4033 13.5573 16.4999 13.8004 16.4999C14.0435 16.4999 14.2767 16.5964 14.4486 16.7683C14.6205 16.9402 14.7171 17.1734 14.7171 17.4165C14.7171 17.6596 14.6205 17.8928 14.4486 18.0647C14.2767 18.2366 14.0435 18.3332 13.8004 18.3332C13.6395 18.3332 13.4814 18.2908 13.3421 18.2104C13.2028 18.1299 13.087 18.0142 13.0066 17.8749C12.9468 17.7698 12.8669 17.6775 12.7713 17.6035C12.6758 17.5294 12.5666 17.475 12.4499 17.4433C12.3332 17.4116 12.2114 17.4033 12.0916 17.4189C11.9717 17.4345 11.8561 17.4736 11.7514 17.5341C11.6467 17.5945 11.555 17.6751 11.4815 17.7711C11.4081 17.8671 11.3544 17.9767 11.3235 18.0936C11.2926 18.2105 11.2851 18.3323 11.3015 18.4521C11.3179 18.5719 11.3578 18.6872 11.4189 18.7915C11.7216 19.3157 12.1888 19.7255 12.7481 19.9571C13.3074 20.1887 13.9275 20.2294 14.5122 20.0727C15.0969 19.916 15.6136 19.5708 15.9821 19.0905C16.3506 18.6103 16.5504 18.0219 16.5504 17.4165C16.5471 17.1035 16.4897 16.7934 16.3808 16.4999H17.4671V19.2499C17.4671 19.493 17.5637 19.7261 17.7356 19.898C17.9075 20.0699 18.1406 20.1665 18.3838 20.1665C18.6269 20.1665 18.86 20.0699 19.0319 19.898C19.2038 19.7261 19.3004 19.493 19.3004 19.2499V12.8332C19.5435 12.8332 19.7767 12.7366 19.9486 12.5647C20.1205 12.3928 20.2171 12.1596 20.2171 11.9165C20.2171 11.6734 20.1205 11.4402 19.9486 11.2683C19.7767 11.0964 19.5444 10.9999 19.3013 10.9999ZM8.32883 10.3059C8.35738 10.4234 8.4089 10.5341 8.48042 10.6317C8.55194 10.7292 8.64204 10.8116 8.74555 10.8741C8.84905 10.9366 8.96391 10.9781 9.08349 10.996C9.20308 11.014 9.32504 11.0081 9.44235 10.9787C9.55965 10.9493 9.66998 10.897 9.76698 10.8248C9.86398 10.7526 9.94574 10.6619 10.0075 10.558C10.0693 10.454 10.1099 10.3389 10.127 10.2192C10.1441 10.0994 10.1374 9.97753 10.1072 9.86044L8.49658 3.41627C8.38392 2.9636 8.12306 2.56164 7.75553 2.27438C7.388 1.98711 6.93493 1.83105 6.46846 1.83105C6.00198 1.83105 5.54892 1.98711 5.18139 2.27438C4.81386 2.56164 4.553 2.9636 4.44033 3.41627L2.82883 9.86044C2.79861 9.97753 2.79185 10.0994 2.80895 10.2192C2.82605 10.3389 2.86667 10.454 2.92847 10.558C2.99027 10.6619 3.07202 10.7526 3.16902 10.8248C3.26602 10.897 3.37635 10.9493 3.49365 10.9787C3.61096 11.0081 3.73292 11.014 3.85251 10.996C3.9721 10.9781 4.08695 10.9366 4.19045 10.8741C4.29396 10.8116 4.38406 10.7292 4.45558 10.6317C4.5271 10.5341 4.57862 10.4234 4.60717 10.3059L5.11958 8.24985H7.81458L8.32883 10.3059ZM5.57883 6.41652L6.21775 3.86177C6.23702 3.811 6.27128 3.76728 6.31598 3.73644C6.36067 3.7056 6.41369 3.68908 6.468 3.68908C6.52231 3.68908 6.57533 3.7056 6.62003 3.73644C6.66472 3.76728 6.69898 3.811 6.71825 3.86177L7.35717 6.41652H5.57883ZM12.8847 6.41652H13.8013C14.0444 6.41676 14.2774 6.51342 14.4492 6.68527C14.6211 6.85713 14.7178 7.09014 14.718 7.33319V8.24985C14.718 8.49297 14.8146 8.72612 14.9865 8.89803C15.1584 9.06994 15.3916 9.16652 15.6347 9.16652C15.8778 9.16652 16.1109 9.06994 16.2829 8.89803C16.4548 8.72612 16.5513 8.49297 16.5513 8.24985V7.33319C16.5506 6.60406 16.2606 5.90501 15.7451 5.38945C15.2295 4.87388 14.5305 4.58391 13.8013 4.58319H12.8847C12.6416 4.58319 12.4084 4.67976 12.2365 4.85167C12.0646 5.02358 11.968 5.25674 11.968 5.49985C11.968 5.74297 12.0646 5.97612 12.2365 6.14803C12.4084 6.31994 12.6416 6.41652 12.8847 6.41652ZM9.218 14.6665H8.30133C8.05829 14.6663 7.82528 14.5696 7.65342 14.3978C7.48157 14.2259 7.38491 13.9929 7.38467 13.7499V12.8332C7.38467 12.5901 7.28809 12.3569 7.11618 12.185C6.94427 12.0131 6.71112 11.9165 6.468 11.9165C6.22489 11.9165 5.99173 12.0131 5.81982 12.185C5.64791 12.3569 5.55133 12.5901 5.55133 12.8332V13.7499C5.55206 14.479 5.84203 15.178 6.35759 15.6936C6.87316 16.2092 7.57221 16.4991 8.30133 16.4999H9.218C9.46112 16.4999 9.69427 16.4033 9.86618 16.2314C10.0381 16.0595 10.1347 15.8263 10.1347 15.5832C10.1347 15.3401 10.0381 15.1069 9.86618 14.935C9.69427 14.7631 9.46112 14.6665 9.218 14.6665Z"></path></mask><path d="M19.3013 10.9999H17.468C17.2249 10.9999 16.9917 11.0964 16.8198 11.2683C16.6479 11.4402 16.5513 11.6734 16.5513 11.9165C16.5513 12.1596 16.6479 12.3928 16.8198 12.5647C16.9917 12.7366 17.2249 12.8332 17.468 12.8332V14.6665H16.3808C16.4897 14.373 16.5471 14.0629 16.5504 13.7499C16.5504 13.1445 16.3506 12.5561 15.9821 12.0758C15.6136 11.5956 15.0969 11.2504 14.5122 11.0937C13.9275 10.937 13.3074 10.9776 12.7481 11.2093C12.1888 11.4409 11.7216 11.8506 11.4189 12.3749C11.3578 12.4791 11.3179 12.5945 11.3015 12.7143C11.2851 12.834 11.2926 12.9559 11.3235 13.0728C11.3544 13.1896 11.4081 13.2992 11.4815 13.3953C11.555 13.4913 11.6467 13.5719 11.7514 13.6323C11.8561 13.6927 11.9717 13.7319 12.0916 13.7475C12.2114 13.7631 12.3332 13.7548 12.4499 13.7231C12.5666 13.6914 12.6758 13.637 12.7713 13.5629C12.8669 13.4888 12.9468 13.3966 13.0066 13.2915C13.087 13.1522 13.2028 13.0365 13.3421 12.956C13.4814 12.8755 13.6395 12.8332 13.8004 12.8332C14.0435 12.8332 14.2767 12.9298 14.4486 13.1017C14.6205 13.2736 14.7171 13.5067 14.7171 13.7499C14.7171 13.993 14.6205 14.2261 14.4486 14.398C14.2767 14.5699 14.0435 14.6665 13.8004 14.6665C13.5573 14.6665 13.3241 14.7631 13.1522 14.935C12.9803 15.1069 12.8838 15.3401 12.8838 15.5832C12.8838 15.8263 12.9803 16.0595 13.1522 16.2314C13.3241 16.4033 13.5573 16.4999 13.8004 16.4999C14.0435 16.4999 14.2767 16.5964 14.4486 16.7683C14.6205 16.9402 14.7171 17.1734 14.7171 17.4165C14.7171 17.6596 14.6205 17.8928 14.4486 18.0647C14.2767 18.2366 14.0435 18.3332 13.8004 18.3332C13.6395 18.3332 13.4814 18.2908 13.3421 18.2104C13.2028 18.1299 13.087 18.0142 13.0066 17.8749C12.9468 17.7698 12.8669 17.6775 12.7713 17.6035C12.6758 17.5294 12.5666 17.475 12.4499 17.4433C12.3332 17.4116 12.2114 17.4033 12.0916 17.4189C11.9717 17.4345 11.8561 17.4736 11.7514 17.5341C11.6467 17.5945 11.555 17.6751 11.4815 17.7711C11.4081 17.8671 11.3544 17.9767 11.3235 18.0936C11.2926 18.2105 11.2851 18.3323 11.3015 18.4521C11.3179 18.5719 11.3578 18.6872 11.4189 18.7915C11.7216 19.3157 12.1888 19.7255 12.7481 19.9571C13.3074 20.1887 13.9275 20.2294 14.5122 20.0727C15.0969 19.916 15.6136 19.5708 15.9821 19.0905C16.3506 18.6103 16.5504 18.0219 16.5504 17.4165C16.5471 17.1035 16.4897 16.7934 16.3808 16.4999H17.4671V19.2499C17.4671 19.493 17.5637 19.7261 17.7356 19.898C17.9075 20.0699 18.1406 20.1665 18.3838 20.1665C18.6269 20.1665 18.86 20.0699 19.0319 19.898C19.2038 19.7261 19.3004 19.493 19.3004 19.2499V12.8332C19.5435 12.8332 19.7767 12.7366 19.9486 12.5647C20.1205 12.3928 20.2171 12.1596 20.2171 11.9165C20.2171 11.6734 20.1205 11.4402 19.9486 11.2683C19.7767 11.0964 19.5444 10.9999 19.3013 10.9999ZM8.32883 10.3059C8.35738 10.4234 8.4089 10.5341 8.48042 10.6317C8.55194 10.7292 8.64204 10.8116 8.74555 10.8741C8.84905 10.9366 8.96391 10.9781 9.08349 10.996C9.20308 11.014 9.32504 11.0081 9.44235 10.9787C9.55965 10.9493 9.66998 10.897 9.76698 10.8248C9.86398 10.7526 9.94574 10.6619 10.0075 10.558C10.0693 10.454 10.1099 10.3389 10.127 10.2192C10.1441 10.0994 10.1374 9.97753 10.1072 9.86044L8.49658 3.41627C8.38392 2.9636 8.12306 2.56164 7.75553 2.27438C7.388 1.98711 6.93493 1.83105 6.46846 1.83105C6.00198 1.83105 5.54892 1.98711 5.18139 2.27438C4.81386 2.56164 4.553 2.9636 4.44033 3.41627L2.82883 9.86044C2.79861 9.97753 2.79185 10.0994 2.80895 10.2192C2.82605 10.3389 2.86667 10.454 2.92847 10.558C2.99027 10.6619 3.07202 10.7526 3.16902 10.8248C3.26602 10.897 3.37635 10.9493 3.49365 10.9787C3.61096 11.0081 3.73292 11.014 3.85251 10.996C3.9721 10.9781 4.08695 10.9366 4.19045 10.8741C4.29396 10.8116 4.38406 10.7292 4.45558 10.6317C4.5271 10.5341 4.57862 10.4234 4.60717 10.3059L5.11958 8.24985H7.81458L8.32883 10.3059ZM5.57883 6.41652L6.21775 3.86177C6.23702 3.811 6.27128 3.76728 6.31598 3.73644C6.36067 3.7056 6.41369 3.68908 6.468 3.68908C6.52231 3.68908 6.57533 3.7056 6.62003 3.73644C6.66472 3.76728 6.69898 3.811 6.71825 3.86177L7.35717 6.41652H5.57883ZM12.8847 6.41652H13.8013C14.0444 6.41676 14.2774 6.51342 14.4492 6.68527C14.6211 6.85713 14.7178 7.09014 14.718 7.33319V8.24985C14.718 8.49297 14.8146 8.72612 14.9865 8.89803C15.1584 9.06994 15.3916 9.16652 15.6347 9.16652C15.8778 9.16652 16.1109 9.06994 16.2829 8.89803C16.4548 8.72612 16.5513 8.49297 16.5513 8.24985V7.33319C16.5506 6.60406 16.2606 5.90501 15.7451 5.38945C15.2295 4.87388 14.5305 4.58391 13.8013 4.58319H12.8847C12.6416 4.58319 12.4084 4.67976 12.2365 4.85167C12.0646 5.02358 11.968 5.25674 11.968 5.49985C11.968 5.74297 12.0646 5.97612 12.2365 6.14803C12.4084 6.31994 12.6416 6.41652 12.8847 6.41652ZM9.218 14.6665H8.30133C8.05829 14.6663 7.82528 14.5696 7.65342 14.3978C7.48157 14.2259 7.38491 13.9929 7.38467 13.7499V12.8332C7.38467 12.5901 7.28809 12.3569 7.11618 12.185C6.94427 12.0131 6.71112 11.9165 6.468 11.9165C6.22489 11.9165 5.99173 12.0131 5.81982 12.185C5.64791 12.3569 5.55133 12.5901 5.55133 12.8332V13.7499C5.55206 14.479 5.84203 15.178 6.35759 15.6936C6.87316 16.2092 7.57221 16.4991 8.30133 16.4999H9.218C9.46112 16.4999 9.69427 16.4033 9.86618 16.2314C10.0381 16.0595 10.1347 15.8263 10.1347 15.5832C10.1347 15.3401 10.0381 15.1069 9.86618 14.935C9.69427 14.7631 9.46112 14.6665 9.218 14.6665Z" fill="black" stroke="white" stroke-width="0.4" mask="url(#path-1-inside-1_2432_350)"></path></svg>